<?xml version="1.0" encoding="UTF-8"?> <svg xmlns="http://www.w3.org/2000/svg" xmlns:xlink="http://www.w3.org/1999/xlink" width="145px" height="45px" viewBox="0 0 145 45" version="1.1"><g id="Style-Guide" stroke="none" stroke-width="1" fill="none" fill-rule="evenodd"><g id="Logo" transform="translate(-156.000000, -837.000000)" fill="#0078C0"><g id="Group-3-Copy-4" transform="translate(64.000000, 760.000000)"><g id="Group" transform="translate(92.000000, 77.000000)"><path d="M13.958,29.677 L13.876,29.738 L13.789,29.791 C12.258,30.849 9.973,31.556 8.098,31.556 L8.095,31.556 C5.347,31.497 4.346,30.525 4.291,27.879 C4.35,24.832 5.37,23.893 8.802,23.676 L13.54,23.454 L13.752,23.445 L13.958,23.439 L13.958,29.677 Z M22.586,31.178 C22.434,30.664 22.004,30.35 21.489,30.35 C21.35,30.357 21.222,30.365 21.056,30.404 C20.321,30.58 19.913,30.635 19.35,30.673 C18.278,30.726 18.088,30.307 18.018,29.102 L18.018,12.611 C17.986,12.23 17.787,11.849 17.493,11.619 L17.386,11.55 C17.352,11.523 17.317,11.488 17.272,11.465 C16.377,10.939 14.888,10.515 13.623,10.195 L13.529,10.168 C12.028,9.805 10.367,9.613 8.725,9.613 C7.76,9.613 6.889,9.687 6.54,9.73 C5.819,9.8 3.871,10.125 3.217,10.348 C3.027,10.41 2.412,10.702 2.391,11.281 C2.402,11.582 2.742,12.547 2.742,12.547 C2.963,13.222 3.198,13.386 3.624,13.473 C3.967,13.512 4.706,13.357 5.199,13.272 C6.469,13.037 7.299,12.948 7.895,12.941 C8.664,12.93 9.63,12.919 10.764,13.083 C12.918,13.414 13.748,14.075 13.748,14.075 L13.748,20.479 L13.558,20.486 L8.958,20.601 C2.806,20.795 -0.041,23.235 2.71050543e-19,28.153 C-0.009,30.386 0.691,32.177 2.024,33.335 C3.262,34.423 5.078,34.996 7.263,34.996 L7.272,34.996 C9.781,34.996 11.939,34.223 14.042,32.558 L14.242,32.404 L14.345,32.635 C14.851,33.75 15.714,34.471 16.898,34.773 C17.429,34.92 18.036,34.996 18.811,34.996 C19.01,34.996 19.21,34.984 19.389,34.964 C20.091,34.868 21.024,34.74 22.064,34.25 C22.634,33.979 23.038,33.643 23.008,33.041 C22.985,32.51 22.586,31.178 22.586,31.178 L22.586,31.178 Z" id="Fill-1"></path><path d="M90.579,34.887 L88.341,34.887 C87.997,34.887 87.709,34.773 87.531,34.576 C87.351,34.366 87.271,34.081 87.271,33.693 L87.271,12.503 C87.255,12.105 87.358,11.815 87.561,11.621 C87.739,11.441 88.003,11.363 88.359,11.363 L90.382,11.363 C90.759,11.363 91.014,11.436 91.212,11.603 C91.415,11.774 91.523,12.054 91.516,12.392 L91.539,12.953 L91.56,13.43 L91.876,13.083 C92.825,12.061 94.452,10.841 96.794,10.841 C97.125,10.841 97.7,10.891 98.204,10.984 C98.624,11.062 98.783,11.488 98.753,11.71 C98.753,11.824 98.749,11.911 98.735,11.99 L98.402,14.128 C98.379,14.499 98.038,14.774 97.752,14.774 C97.492,14.764 97.346,14.743 97.182,14.714 C96.938,14.677 96.664,14.625 96.181,14.625 C94.618,14.625 92.871,15.662 91.705,17.271 L91.666,17.318 L91.666,33.693 C91.666,34.059 91.578,34.346 91.396,34.553 C91.217,34.763 90.925,34.887 90.579,34.887" id="Fill-2"></path><path d="M76.774,20.546 L66.499,20.546 C66.64,15.361 68.618,13.242 71.868,13.242 C75.032,13.242 76.822,14.979 76.822,19.043 C76.822,19.362 76.822,20.17 76.774,20.546 M71.964,9.94 C66.213,9.94 61.88,13.942 61.88,23.044 C61.88,31.388 65.79,35.486 73.143,35.486 C74.307,35.486 75.691,35.35 77.014,35.08 C77.221,35.041 77.434,34.984 77.641,34.939 C78.476,34.708 79.32,34.361 79.63,34.216 C80.091,34.04 80.447,33.685 80.474,33.239 C80.349,32.575 80.18,31.899 79.986,31.246 C79.81,30.808 79.413,30.532 79.005,30.557 C78.866,30.557 76.889,30.986 76.774,31.021 C75.641,31.313 74.397,31.483 73.237,31.483 C68.006,31.483 66.449,28.983 66.449,23.842 L66.449,23.464 L80.15,23.464 C80.556,23.427 80.871,23.119 80.928,22.713 C80.928,22.658 80.933,22.597 80.942,22.535 C80.987,21.636 81.017,20.692 81.017,19.93 C81.017,13.614 77.949,9.94 71.964,9.94" id="Fill-3"></path><path d="M104.394,44.428 L104.246,44.428 C103.438,44.428 102.768,44.37 102.116,44.24 C101.714,44.17 101.566,43.648 101.645,42.934 C101.645,42.934 101.694,42.172 101.808,41.634 C101.915,41.086 102.175,40.837 102.464,40.837 L102.546,40.837 L102.768,40.847 C102.9,40.856 103.087,40.881 103.261,40.895 C103.66,40.938 104.066,40.981 104.383,40.981 C107.054,40.951 108.495,39.975 109.517,37.5 L110.749,34.492 L110.865,34.173 L110.909,34.04 L110.865,33.897 L102.638,12.141 C102.602,12.045 102.59,11.947 102.59,11.858 C102.59,11.774 102.602,11.619 102.715,11.488 C102.8,11.397 102.946,11.331 103.105,11.331 L106.224,11.331 C106.677,11.331 107.015,11.57 107.115,11.92 L112.532,27.505 L112.893,28.548 L113.265,27.505 L118.865,12.036 C118.983,11.603 119.334,11.324 119.743,11.324 L119.766,11.324 L119.85,11.331 L122.437,11.331 C122.646,11.331 122.801,11.372 122.909,11.459 C123.016,11.55 123.059,11.689 123.052,11.792 C123.052,11.941 123.016,12.066 122.972,12.187 L113.769,36.882 C111.764,42.384 109.223,44.428 104.394,44.428" id="Fill-4"></path><path d="M141.487,34.827 C140.951,34.827 140.508,34.576 140.257,34.115 L135.34,26.524 L135.166,26.27 L135,26.524 L130.089,34.108 C129.829,34.576 129.386,34.827 128.844,34.827 L128.764,34.817 L126.136,34.817 C125.921,34.817 125.767,34.766 125.636,34.67 C125.507,34.563 125.416,34.375 125.431,34.197 C125.431,33.979 125.507,33.748 125.636,33.559 L132.751,22.763 L132.833,22.653 L132.751,22.542 L126.195,12.438 C126.079,12.25 126.022,12.091 126.026,11.941 C126.026,11.516 126.416,11.26 126.789,11.256 L129.256,11.256 C129.788,11.256 130.205,11.486 130.388,11.849 L135.004,18.852 L135.166,19.093 L135.324,18.852 L139.915,11.892 C140.12,11.488 140.542,11.256 141.023,11.256 L143.551,11.256 C143.916,11.256 144.315,11.516 144.315,11.938 C144.315,12.091 144.258,12.25 144.142,12.42 L137.586,22.542 L137.509,22.653 L137.586,22.763 L144.68,33.536 C144.833,33.748 144.908,33.97 144.908,34.187 C144.922,34.375 144.835,34.563 144.709,34.67 C144.575,34.766 144.418,34.817 144.196,34.817 L141.585,34.817 L141.487,34.827" id="Fill-5"></path><path d="M34.962,34.889 C33.801,34.889 32.682,34.702 31.71,34.348 C30.82,34.038 30.115,33.593 29.614,33.041 C28.216,31.504 28.093,29.59 28.074,27.062 L28.074,2.915 C28.074,2.773 28.136,2.629 28.227,2.522 C29.055,1.596 30.125,0.905 31.409,0.469 C31.489,0.44 31.543,0.44 31.607,0.44 C31.71,0.44 31.981,0.458 32.203,0.674 C32.401,0.88 32.495,1.16 32.492,1.528 L32.492,27.216 C32.501,28.553 32.821,29.615 33.409,30.278 C33.911,30.831 34.723,31.111 35.756,31.111 C36.007,31.111 36.29,31.091 36.628,31.05 C37.38,30.942 38.104,30.731 38.58,30.58 C38.71,30.525 38.827,30.5 38.965,30.5 C39.374,30.5 39.729,30.79 39.867,31.219 C39.867,31.219 40.231,32.452 40.277,33.034 C40.307,33.536 39.857,33.874 39.442,34.02 C38.914,34.232 37.047,34.889 34.962,34.889" id="Fill-6"></path><path d="M57.525,31.205 C57.389,30.774 57.033,30.486 56.613,30.486 C56.483,30.486 56.36,30.512 56.232,30.562 C55.539,30.785 54.494,31.072 53.511,31.091 L53.406,31.107 C52.346,31.107 51.549,30.817 51.041,30.258 C50.562,29.732 50.218,28.876 50.19,27.273 C50.19,27.238 50.19,27.213 50.19,27.184 L50.323,14.468 L55.525,14.468 C55.803,14.468 56.034,14.436 56.249,14.272 C56.508,14.068 56.549,13.733 56.543,13.548 L56.543,11.947 C56.549,11.603 56.447,11.354 56.253,11.196 C56.022,11.03 55.767,11.016 55.571,11.016 L50.323,11.016 L50.323,3.099 C50.323,2.725 50.231,2.451 50.037,2.248 C49.821,2.036 49.54,2.011 49.442,2.011 C49.376,2.011 49.319,2.011 49.221,2.041 C48.917,2.152 48.099,2.438 47.204,3.067 C46.894,3.293 46.579,3.574 46.263,3.893 C46.175,4.003 46.125,4.139 46.125,4.274 L46,10.934 L43.313,10.934 C43.051,10.934 42.766,11.001 42.562,11.215 C42.36,11.436 42.31,11.71 42.31,11.99 L42.31,13.452 C42.314,13.767 42.3,14.041 42.544,14.308 C42.82,14.562 43.09,14.54 43.402,14.552 L45.927,14.552 L45.687,26.513 L45.692,27.026 C45.701,29.561 45.824,31.483 47.227,33.036 C48.306,34.207 50.268,34.88 52.601,34.889 C54.711,34.889 56.351,34.329 57.101,34.02 C57.502,33.851 57.955,33.526 57.936,33.025 C57.936,32.548 57.525,31.205 57.525,31.205" id="Fill-7"></path></g></g></g></g></svg> 