<?xml version="1.0" encoding="UTF-8"?> <svg xmlns="http://www.w3.org/2000/svg" width="273" height="238" viewBox="0 0 273 238" fill="none"><g clip-path="url(#clip0)"><path d="M212.19 212.784C210.515 216.659 208.793 220.535 207.118 224.459C218.457 231.349 230.275 237.569 232.38 235.081C233.385 233.885 232.811 230.057 220.562 215.798C217.787 214.793 214.965 213.789 212.19 212.784Z" fill="#5492ED"></path><path d="M220.658 218.095C219.702 217.281 217.788 217.473 217.405 218.86C217.262 219.483 217.596 220.009 218.218 219.961C219.08 219.913 219.893 219.435 220.467 218.765C220.611 218.573 220.371 218.334 220.228 218.526C219.893 218.908 219.462 219.243 218.936 219.435C218.745 219.483 218.362 219.674 218.171 219.578C217.644 219.435 217.692 218.908 217.931 218.573C218.505 217.808 219.702 217.712 220.419 218.334C220.563 218.526 220.802 218.238 220.658 218.095Z" fill="white"></path><path d="M220.611 218.191C220.802 217.616 221.377 217.281 221.951 217.138C222.333 217.042 222.812 217.042 223.099 217.329C223.482 217.664 223.434 218.143 223.003 218.382C222.333 218.813 221.472 218.478 220.755 218.908C220.563 219.004 220.755 219.339 220.946 219.195C221.664 218.765 222.573 219.1 223.243 218.621C223.721 218.286 223.817 217.712 223.53 217.281C222.716 216.037 220.659 216.946 220.276 218.095C220.228 218.334 220.563 218.43 220.611 218.191Z" fill="white"></path><path d="M220.419 221.062C221.52 220.44 222.716 220.296 223.912 220.679C224.151 220.727 224.247 220.392 224.007 220.344C222.716 219.961 221.376 220.105 220.228 220.774C220.036 220.87 220.228 221.205 220.419 221.062Z" fill="white"></path><path d="M221.615 223.215C222.62 222.497 223.816 222.306 224.964 222.688C225.203 222.784 225.299 222.401 225.06 222.353C223.816 221.923 222.476 222.114 221.424 222.88C221.28 223.071 221.424 223.358 221.615 223.215Z" fill="white"></path><path d="M223.242 225.368C224.343 224.65 225.635 224.507 226.879 224.985C227.118 225.081 227.166 224.698 226.974 224.65C225.683 224.172 224.247 224.315 223.099 225.081C222.86 225.177 223.051 225.511 223.242 225.368Z" fill="white"></path><path d="M224.965 228.717C226.496 227.808 228.218 227.569 229.941 228C230.18 228.047 230.276 227.713 230.036 227.665C228.218 227.186 226.4 227.473 224.774 228.43C224.582 228.526 224.774 228.813 224.965 228.717Z" fill="white"></path><path d="M208.266 223.215C213.529 226.229 218.696 229.387 223.768 232.737C223.959 232.88 224.151 232.545 223.959 232.45C218.888 229.1 213.72 225.894 208.458 222.928C208.218 222.784 208.027 223.071 208.266 223.215Z" fill="white"></path><path d="M226.83 103.545C227.979 105.985 229.845 109.957 232.237 114.741C235.395 121.105 238.409 127.086 242.571 134.694C246.925 142.589 248.504 144.934 250.083 150.102C250.896 152.829 251.853 156.035 251.901 160.341C251.901 162.686 251.662 167.232 248.408 175.175C245.298 182.687 241.662 187.807 239.844 190.39C235.49 196.563 229.701 204.984 221.759 216.707C220.898 215.99 219.702 215.224 218.266 214.506C215.874 213.358 213.721 212.975 212.19 212.784C212.669 211.348 213.386 209.195 214.152 206.515C215.778 200.869 216.831 195.893 219.367 180.964C219.893 177.95 220.563 174.026 221.328 169.481C221.233 167.949 220.946 165.605 220.037 162.877C218.888 159.432 217.501 157.758 214.056 151.872C212.764 149.623 211.52 147.374 210.228 145.125C205.635 137.039 205.253 136.273 203.53 133.307C201.951 130.579 199.751 126.704 196.928 121.967C197.454 118.091 198.794 115.363 199.894 113.593C207.693 101.583 226.065 103.497 226.83 103.545Z" fill="white"></path><path d="M227.883 106.846C231.663 113.976 235.395 121.105 239.079 128.283C242.81 135.508 247.212 142.781 250.035 150.437C255.681 165.748 245.968 181.108 237.595 193.357C232.476 200.869 227.261 208.382 222.094 215.894C221.95 216.085 222.285 216.277 222.381 216.085C227.213 209.051 232.093 202.018 236.926 194.984C241.232 188.716 245.538 182.304 248.504 175.27C251.327 168.667 253.001 161.298 251.47 154.169C250.705 150.532 249.078 147.135 247.404 143.834C245.442 139.958 243.48 136.13 241.519 132.254C237.117 123.689 232.667 115.172 228.17 106.703C228.074 106.464 227.787 106.655 227.883 106.846Z" fill="#202124"></path><path d="M199.751 126.943C203.435 133.45 207.071 139.958 210.755 146.465C212.573 149.719 214.439 152.973 216.257 156.226C218.219 159.719 220.515 163.164 220.85 167.279C221.185 171.06 220.324 174.935 219.654 178.62C218.984 182.256 218.314 185.941 217.549 189.577C216.066 196.85 214.487 204.123 212.716 211.348C212.669 211.587 213.003 211.683 213.051 211.444C214.917 203.74 216.592 196.037 218.171 188.285C218.936 184.505 219.654 180.677 220.324 176.849C220.946 173.404 221.615 169.863 221.137 166.37C220.706 163.308 219.223 160.676 217.74 158.045C215.826 154.647 213.913 151.298 211.999 147.901C208.028 140.867 204.057 133.833 200.085 126.799C199.942 126.56 199.655 126.752 199.751 126.943Z" fill="#202124"></path><path d="M213.147 212.736C215.827 213.166 218.219 214.363 220.228 216.277C220.372 216.42 220.659 216.181 220.468 216.037C218.458 214.123 216.018 212.879 213.243 212.401C213.004 212.353 212.908 212.688 213.147 212.736Z" fill="#202124"></path><path d="M166.546 209.195C165.207 212.066 163.819 214.985 162.479 217.856C182.526 227.043 193.148 230.679 194.296 228.669C195.301 226.947 189.177 220.966 175.876 210.726C172.766 210.248 169.656 209.721 166.546 209.195Z" fill="#5492ED"></path><path d="M176.881 212.114C176.019 212.114 175.206 212.449 174.536 213.023C174.058 213.454 173.34 214.315 173.675 214.985C174.44 216.468 176.737 213.693 177.168 213.119C177.311 212.927 176.976 212.736 176.881 212.927C176.498 213.454 176.067 213.932 175.589 214.315C175.254 214.602 173.675 215.607 174.106 214.219C174.44 213.119 175.828 212.449 176.881 212.449C177.12 212.497 177.12 212.114 176.881 212.114Z" fill="white"></path><path d="M177.311 212.64C177.694 211.874 178.651 211.061 179.608 211.348C180.325 211.587 179.895 212.162 179.416 212.353C179.225 212.401 179.034 212.449 178.842 212.496C178.316 212.64 177.79 212.784 177.263 212.879C177.024 212.927 177.12 213.262 177.359 213.214C177.885 213.071 178.412 212.927 178.938 212.831C179.321 212.736 179.751 212.64 180.038 212.401C180.373 212.114 180.517 211.54 180.182 211.205C179.751 210.822 178.938 210.917 178.459 211.109C177.837 211.348 177.311 211.827 177.024 212.449C176.928 212.64 177.216 212.831 177.311 212.64Z" fill="white"></path><path d="M177.933 215.176C178.603 214.458 179.512 214.076 180.516 214.028C180.756 214.028 180.756 213.645 180.516 213.645C179.416 213.693 178.459 214.123 177.694 214.889C177.502 215.08 177.789 215.367 177.933 215.176Z" fill="white"></path><path d="M179.177 216.516C179.751 215.846 180.564 215.511 181.473 215.559C181.712 215.559 181.712 215.224 181.473 215.176C180.516 215.08 179.56 215.511 178.938 216.229C178.746 216.468 178.985 216.707 179.177 216.516Z" fill="white"></path><path d="M180.469 217.856C181.187 217.042 182.192 216.611 183.244 216.803C183.483 216.851 183.579 216.468 183.34 216.468C182.144 216.277 180.995 216.707 180.182 217.616C180.086 217.76 180.326 218.047 180.469 217.856Z" fill="white"></path><path d="M182.862 219.195C183.914 218.334 185.158 217.856 186.498 217.664C186.737 217.616 186.737 217.281 186.498 217.281C185.062 217.425 183.723 217.999 182.622 218.908C182.431 219.052 182.718 219.339 182.862 219.195Z" fill="white"></path><path d="M163.197 216.372C168.795 219.243 174.392 222.114 179.99 224.985C180.182 225.081 180.373 224.794 180.182 224.698C174.584 221.827 168.986 218.956 163.388 216.085C163.149 215.989 162.958 216.277 163.197 216.372Z" fill="white"></path><path d="M179.464 111.679C179.368 112.971 179.225 114.885 179.177 117.182C179.081 120.579 178.89 126.273 179.56 131.106C180.325 136.417 182.047 140.293 184.057 144.456C190.851 158.619 198.937 172.926 201.903 178.189C200.563 179.146 198.458 180.677 195.97 182.591C191.521 186.036 187.645 189.433 177.407 198.955C174.584 201.587 170.852 205.08 166.546 209.195C167.694 209.243 168.89 209.386 170.23 209.626C173.005 210.104 175.301 210.965 177.072 211.779C179.177 210.774 182.526 209.147 186.688 207.233C191.425 205.032 199.08 201.587 208.027 197.281C210.18 196.228 216.208 193.309 220.754 188.811C221.902 187.663 223.098 186.323 224.151 184.505C225.682 181.825 226.16 179.385 226.495 177.71C226.878 175.509 227.26 171.969 226.495 167.566C225.825 164.504 224.82 160.246 223.624 155.221C221.998 148.475 220.132 140.819 217.452 131.871C215.586 125.555 212.907 117.23 209.223 107.468C199.319 108.856 189.368 110.244 179.464 111.679Z" fill="white"></path><path d="M179.369 110.77C178.89 116.799 178.603 122.923 179.129 128.952C179.608 134.503 181.665 139.527 183.914 144.551C188.985 155.796 195.109 166.466 201.234 177.136C201.329 177.328 201.664 177.136 201.521 176.945C195.684 166.801 189.847 156.657 184.966 146.034C182.383 140.388 179.895 134.79 179.416 128.522C178.986 122.636 179.225 116.655 179.704 110.77C179.751 110.531 179.369 110.531 179.369 110.77Z" fill="#202124"></path><path d="M200.994 178.093C189.081 187.95 177.55 198.285 166.403 209.051C166.259 209.195 166.498 209.482 166.642 209.291C177.79 198.525 189.32 188.237 201.233 178.333C201.425 178.237 201.186 177.95 200.994 178.093Z" fill="#202124"></path><path d="M214.486 122.349C219.079 137.661 223.098 153.164 226.591 168.763C226.639 169.002 226.973 168.906 226.926 168.667C223.481 153.068 219.414 137.565 214.821 122.254C214.773 122.062 214.438 122.158 214.486 122.349Z" fill="#202124"></path><path d="M226.591 170.82C226.782 176.801 225.969 182.543 221.95 187.232C218.601 191.156 214.055 193.883 209.558 196.276C199.415 201.683 188.602 205.75 178.411 211.157C178.22 211.252 178.411 211.587 178.603 211.444C189.703 205.558 201.664 201.3 212.572 195.032C216.639 192.687 220.658 189.864 223.385 185.988C226.591 181.49 227.117 176.131 226.973 170.772C226.973 170.581 226.591 170.581 226.591 170.82Z" fill="#202124"></path><path d="M167.264 209.817C170.374 209.721 173.531 209.721 176.163 211.587C176.354 211.731 176.545 211.396 176.354 211.3C173.675 209.386 170.469 209.386 167.264 209.482C167.072 209.482 167.072 209.817 167.264 209.817Z" fill="#202124"></path><path d="M248.36 62.5861C249.652 60.1937 250.848 58.2319 251.709 56.8443C253.623 53.8298 254.341 53.1599 255.106 52.6336C256.972 51.3417 259.029 51.1024 260.321 51.1024C260.273 51.6288 260.177 52.1551 260.177 52.7771C260.13 54.2126 260.225 55.4567 260.417 56.5093C260.13 56.8921 259.699 57.562 259.125 58.3276C257.833 60.1937 257.69 60.3372 257.498 60.7679C256.828 62.2033 257.211 62.634 256.685 63.6867C255.967 65.0264 254.675 65.6006 254.053 65.8877C251.422 67.0839 247.69 66.6054 247.164 65.1221C247.068 64.835 246.972 64.0216 248.36 62.5861Z" fill="white"></path><path d="M236.303 40.1929C236.734 40.7193 237.213 41.2456 237.643 41.772C237.739 42.4897 237.835 43.4467 237.93 44.6429C238.265 48.1358 238.791 53.9255 239.126 61.1029C239.27 64.0216 239.413 67.5625 239.461 71.6296C242.762 68.328 246.064 65.0265 249.365 61.7249C249.509 62.2512 249.7 62.9211 250.226 63.6389C251.518 65.4093 253.527 65.8399 254.054 65.9356C253.623 66.8447 252.953 68.2323 252.14 69.9071C249.269 75.936 248.934 77.0844 246.973 81.1037C245.681 83.7354 243.863 87.2283 240.992 90.7691C240.131 91.8218 238.887 93.2094 236.878 94.0229C236.208 94.2621 234.294 95.0277 232.189 94.4535C230.084 93.8793 228.888 92.2524 227.644 90.5299C226.065 88.3288 225.539 86.6541 223.673 81.3429C221.854 76.2231 222.285 77.6107 221.52 75.2661C220.084 71.0076 218.505 66.4141 217.07 60.4808C216.496 58.2319 215.826 55.1696 215.204 51.4853C216.161 49.8584 221.232 41.3892 230.514 40.0972C232.619 39.7145 234.581 39.858 236.303 40.1929Z" fill="white"></path><path d="M237.451 41.772C238.408 51.1503 239.03 60.5765 239.27 70.0028C239.27 70.242 239.652 70.242 239.652 70.0028C239.413 60.5765 238.839 51.1503 237.834 41.772C237.786 41.5327 237.404 41.5327 237.451 41.772Z" fill="#202124"></path><path d="M215.922 56.8443C218.649 67.8974 222.189 78.6634 226.591 89.1423C226.687 89.3337 227.022 89.238 226.926 89.0466C222.524 78.5677 218.984 67.7538 216.257 56.7486C216.209 56.5572 215.874 56.6529 215.922 56.8443Z" fill="#202124"></path><path d="M235.347 76.0795C239.748 71.6296 244.102 67.1797 248.504 62.7297C248.647 62.5862 248.408 62.2991 248.265 62.4905C243.863 66.9404 239.509 71.3904 235.107 75.8403C234.916 75.9838 235.155 76.2231 235.347 76.0795Z" fill="#202124"></path><path d="M228.409 91.3433C229.414 93.6879 231.758 94.9798 234.294 94.8363C237.404 94.6449 239.892 92.4439 241.71 90.0993C246.733 83.544 250.178 75.4575 253.144 67.8496C253.24 67.6582 252.905 67.5625 252.81 67.7539C250.417 73.8307 247.69 79.7639 244.341 85.3622C242.667 88.1375 240.944 91.2476 238.169 93.0659C235.011 95.1234 230.371 95.0755 228.696 91.1998C228.6 90.9127 228.313 91.1041 228.409 91.3433Z" fill="#202124"></path><path d="M249.365 62.2513C249.939 64.0217 251.279 65.3614 253.049 65.9835C253.288 66.0792 253.384 65.6964 253.145 65.6485C251.518 65.1222 250.226 63.8303 249.7 62.2034C249.652 61.9163 249.269 62.012 249.365 62.2513Z" fill="#202124"></path><path d="M251.088 60.0501C251.71 60.0501 252.284 59.8588 252.762 59.476C253.48 58.8539 253.48 57.9448 254.054 57.2749C254.819 56.4136 256.255 56.2701 256.494 54.9782C256.542 54.7389 256.207 54.6432 256.159 54.8825C255.92 55.9351 254.676 56.2222 253.958 56.8443C253.671 57.1314 253.48 57.3706 253.336 57.7534C252.858 58.8539 252.427 59.6195 251.088 59.6674C250.848 59.7152 250.848 60.0501 251.088 60.0501Z" fill="#202124"></path><path d="M251.9 56.94C252.809 55.4089 254.197 54.2605 255.871 53.6385C256.111 53.5428 256.015 53.2078 255.776 53.3035C254.006 53.9255 252.57 55.1218 251.613 56.7486C251.47 56.94 251.757 57.1314 251.9 56.94Z" fill="#202124"></path><path d="M251.566 56.7965C253.719 53.9256 256.351 50.8154 260.37 51.2461C260.609 51.2939 260.609 50.9111 260.37 50.8633C256.255 50.3848 253.528 53.5907 251.279 56.5573C251.088 56.7965 251.423 56.9879 251.566 56.7965Z" fill="#202124"></path><path d="M260.083 51.9637C258.934 52.6336 257.882 53.3992 256.829 54.1648C256.638 54.3083 256.829 54.5954 257.021 54.4519C258.073 53.6384 259.174 52.9207 260.274 52.2508C260.465 52.1551 260.274 51.8202 260.083 51.9637Z" fill="#202124"></path><path d="M260.034 52.6815C259.316 53.9255 258.455 54.9782 257.355 55.9352C257.163 56.0787 257.45 56.318 257.594 56.1744C258.694 55.2175 259.603 54.1169 260.321 52.8729C260.465 52.6336 260.13 52.4422 260.034 52.6815Z" fill="#202124"></path><path d="M260.369 53.7819C259.747 55.1696 258.886 56.4136 257.785 57.4663C257.642 57.6098 257.881 57.8969 258.025 57.7055C259.125 56.605 260.034 55.361 260.656 53.9733C260.8 53.7341 260.465 53.5427 260.369 53.7819Z" fill="#202124"></path><path d="M260.274 55.3132C260.513 57.4664 258.312 58.3755 257.546 60.098C257.164 60.9593 257.212 61.9163 256.925 62.7297C256.398 64.1174 255.202 64.9308 253.958 65.6964C253.767 65.8399 253.958 66.127 254.15 65.9835C256.303 64.6437 257.068 63.591 257.642 61.1507C258.168 58.9018 260.943 57.7056 260.656 55.2175C260.609 55.0739 260.274 55.0739 260.274 55.3132Z" fill="#202124"></path><path d="M170.23 36.0295C170.661 41.7235 171.092 47.4654 171.474 53.1594C171.379 57.1787 171.379 61.9157 171.666 67.2269C171.714 67.7533 172.001 73.3994 172.718 79.237C174.297 92.4433 177.79 104.836 179.56 110.817C180.995 111.535 183.148 112.444 185.923 113.21C192.095 114.884 197.215 114.502 201.377 114.167C206.736 113.736 210.659 112.683 213.625 111.87C218.888 110.434 223.194 108.76 226.352 107.324C226.83 106.08 227.548 104.023 228.409 101.439C232.907 87.4191 234.007 75.4569 234.342 69.1887C234.581 65.313 234.342 66.0786 234.581 60.4803C234.964 51.8196 235.729 44.8337 236.304 40.2881C234.677 39.2354 232.38 37.8478 229.557 36.4601C220.036 31.7231 211.52 30.3355 207.358 29.857C202.717 29.3307 194.535 28.8522 184.727 31.0532C178.603 32.3452 173.675 34.3548 170.23 36.0295Z" fill="white"></path><path d="M170.326 36.1736C191.521 26.1254 216.448 27.7044 236.207 40.3365C236.399 40.48 236.59 40.1451 236.399 40.0494C216.543 27.3694 191.425 25.7904 170.134 35.8865C169.895 35.9822 170.087 36.2693 170.326 36.1736Z" fill="#202124"></path><path d="M234.293 45.1213C234.58 65.3614 234.772 86.1756 226.638 105.124C226.543 105.315 226.877 105.507 226.925 105.315C235.059 86.3192 234.915 65.4092 234.628 45.1213C234.676 44.8821 234.293 44.8821 234.293 45.1213Z" fill="#202124"></path><path d="M171.331 52.3944C170.756 71.6296 173.292 90.8649 178.842 109.334C178.89 109.574 179.273 109.478 179.177 109.239C173.675 90.817 171.139 71.6296 171.713 52.3944C171.665 52.203 171.331 52.203 171.331 52.3944Z" fill="#202124"></path><path d="M179.464 110.818C193.818 118.33 212.477 113.689 226.4 107.42C226.591 107.325 226.447 107.038 226.208 107.133C212.381 113.354 193.865 117.995 179.608 110.531C179.464 110.387 179.273 110.674 179.464 110.818Z" fill="#202124"></path><path d="M167.12 106.703C167.12 107.133 167.12 107.851 167.503 108.569C168.077 109.717 169.177 110.291 170.134 110.77C171.378 111.392 171.665 111.248 172.383 111.87C173.053 112.445 173.005 112.78 173.627 113.449C173.675 113.497 174.632 114.502 176.067 114.885C176.45 114.981 177.263 115.124 180.995 113.976C181.904 113.689 182.622 113.449 183.1 113.258C183.004 112.636 182.67 111.535 181.808 110.387C181.043 109.382 180.134 108.76 179.608 108.473C181.139 108.904 182.335 108.808 182.574 108.33C182.813 107.803 181.952 106.798 181.282 106.272C180.517 105.698 179.847 105.602 178.076 105.172C177.407 104.98 176.402 104.741 175.206 104.358C174.632 104.023 173.77 103.64 172.67 103.593C169.464 103.401 167.311 106.464 167.12 106.703Z" fill="white"></path><path d="M170.231 36.0301C169.561 36.5565 168.604 37.4177 167.552 38.4704C166.068 39.9537 162.289 43.9252 158.557 51.7724C155.208 58.9019 153.964 64.883 153.15 68.7587C152.146 73.6393 151.237 80.4817 151.428 88.8074C151.859 89.573 152.481 90.6735 153.294 91.9654C155.925 96.0804 158.509 98.9035 161.475 102.205C162.719 103.593 164.442 105.363 166.499 107.421C166.93 106.942 167.456 106.416 168.126 105.985C170.996 104.023 174.202 104.263 175.446 104.406C174.393 102.205 173.341 99.8126 172.384 97.2766C170.47 92.3003 169.13 87.659 168.174 83.4005C168.748 81.1516 169.561 78.2806 170.709 74.9312C171.475 72.7302 173.197 68.041 176.116 62.2991C177.599 59.3325 179.608 55.8395 182.144 51.9638C182.288 51.4853 184.106 45.6956 180.23 40.6715C176.546 35.8866 170.757 35.9823 170.231 36.0301Z" fill="white"></path><path d="M169.465 36.4129C162.671 42.394 158.365 50.4326 155.59 58.9497C152.528 68.4238 150.327 78.807 151.284 88.8074C151.284 89.0466 151.667 89.0466 151.667 88.8074C150.758 79.0941 152.815 69.1415 155.685 59.9067C158.413 51.1504 162.719 42.8247 169.704 36.7C169.895 36.5086 169.608 36.2694 169.465 36.4129Z" fill="#202124"></path><path d="M177.024 60.3373C172.957 67.7539 169.943 75.649 168.029 83.879C167.981 84.1182 168.316 84.2139 168.364 83.9747C170.278 75.7925 173.292 67.8975 177.311 60.5287C177.454 60.3373 177.12 60.1459 177.024 60.3373Z" fill="#202124"></path><path d="M151.379 88.903C155.063 95.8411 160.422 101.487 166.02 106.894C166.163 107.038 166.45 106.798 166.259 106.655C160.709 101.248 155.351 95.6018 151.714 88.7116C151.571 88.5202 151.284 88.7116 151.379 88.903Z" fill="#202124"></path><path d="M168.077 84.0225C169.751 90.8649 172.192 97.5159 175.349 103.832C175.445 104.023 175.78 103.88 175.636 103.641C172.479 97.3245 170.086 90.7692 168.412 83.9268C168.364 83.6875 168.029 83.7832 168.077 84.0225Z" fill="#202124"></path><path d="M167.168 106.942C169.369 105.124 172.048 104.31 174.871 104.55C175.11 104.55 175.11 104.215 174.871 104.167C171.952 103.928 169.177 104.837 166.929 106.655C166.737 106.846 166.977 107.086 167.168 106.942Z" fill="#202124"></path><path d="M167.217 108.138C167.886 111.105 171.81 110.818 173.341 113.067C173.484 113.258 173.771 113.067 173.628 112.875C172.145 110.626 168.221 110.866 167.551 107.995C167.504 107.803 167.169 107.899 167.217 108.138Z" fill="#202124"></path><path d="M175.445 104.55C177.598 105.65 181.425 105.124 182.239 107.947C182.287 108.186 182.669 108.09 182.574 107.851C181.665 104.837 177.885 105.411 175.588 104.263C175.445 104.119 175.253 104.454 175.445 104.55Z" fill="#202124"></path><path d="M178.459 107.803C180.708 108.904 182.335 110.914 182.909 113.354C182.957 113.593 183.292 113.497 183.244 113.258C182.622 110.722 180.947 108.665 178.603 107.516C178.459 107.373 178.268 107.66 178.459 107.803Z" fill="#202124"></path><path d="M174.297 111.392C174.728 111.679 175.158 112.062 175.493 112.493C175.685 112.732 175.828 112.923 175.924 113.21C176.115 113.689 176.163 114.694 175.302 114.55C175.063 114.502 174.967 114.837 175.206 114.885C176.019 115.029 176.546 114.311 176.402 113.545C176.211 112.54 175.254 111.679 174.488 111.105C174.297 110.961 174.106 111.248 174.297 111.392Z" fill="#202124"></path><path d="M175.828 110.77C176.976 111.583 178.268 112.684 177.885 114.263C177.837 114.502 178.172 114.598 178.22 114.359C178.603 112.636 177.311 111.392 175.972 110.483C175.828 110.339 175.684 110.626 175.828 110.77Z" fill="#202124"></path><path d="M177.551 110.722C179.034 110.961 180.086 112.349 179.895 113.832C179.847 114.072 180.23 114.072 180.278 113.832C180.469 112.205 179.321 110.626 177.694 110.387C177.407 110.339 177.311 110.722 177.551 110.722Z" fill="#202124"></path><path d="M178.938 109.813C180.134 110.626 180.899 111.871 181.091 113.306C181.139 113.545 181.473 113.545 181.473 113.306C181.282 111.727 180.469 110.387 179.177 109.526C178.89 109.382 178.746 109.669 178.938 109.813Z" fill="#202124"></path><path d="M192.621 23.1109C192.573 23.9722 192.669 24.7857 192.765 25.3598C192.86 25.9819 193.052 26.9867 193.482 27.9437C194.678 30.5754 197.31 31.628 197.501 31.7237C199.128 32.3458 200.563 32.2501 201.329 32.1065C201.52 32.3936 201.712 32.6807 201.903 32.92C201.855 32.92 200.755 32.8721 200.276 33.6377C199.798 34.4033 200.324 35.4559 200.898 35.9344C202.094 36.8914 204.056 35.9823 204.487 35.743C205.826 35.121 206.496 34.0683 206.735 33.6855C207.309 32.7764 207.549 31.9151 207.644 31.3409C206.879 31.4366 206.113 31.5323 205.396 31.6759C205.109 31.2452 204.821 30.7668 204.534 30.3361C205.013 29.8098 205.826 28.9007 206.352 27.513C206.448 27.1781 206.831 26.2211 206.831 24.8814C206.831 24.0679 206.783 21.4362 205.156 19.5701C202.573 16.5557 196.784 16.46 194.344 19.1873C193.578 20.0008 192.765 21.4362 192.621 23.1109Z" fill="white"></path><path d="M206.927 23.0144C206.401 22.3923 204.87 20.6698 202.238 19.952C201.425 19.7606 199.033 19.1865 196.497 20.4305C194.153 21.5789 193.1 23.5885 192.813 24.2584C192.43 24.1627 191.856 24.0192 191.234 23.7321C188.746 22.5359 187.694 20.2391 187.55 19.8563C187.215 19.0908 186.306 16.6505 187.502 13.9709C187.741 13.4924 188.746 11.3392 191.09 10.3344C193.435 9.3296 195.636 10.143 197.358 10.7651C201.616 12.2962 203.865 15.5978 204.487 16.5069C206.066 18.9951 206.688 21.3875 206.927 23.0144Z" fill="#202124"></path><path d="M192.621 23.5894C192.238 27.8958 195.013 32.0586 199.558 32.25C204.199 32.4414 206.974 28.4221 206.926 24.1157C206.926 23.8764 206.544 23.8764 206.544 24.1157C206.592 28.3742 203.817 32.25 199.224 31.8194C195.061 31.4366 192.621 27.513 192.956 23.5415C193.004 23.3501 192.669 23.3501 192.621 23.5894Z" fill="#202124"></path><path d="M201.137 32.1543C201.329 32.4414 201.52 32.7285 201.712 32.9678C201.855 33.1592 202.142 32.9678 201.999 32.7764C201.807 32.4893 201.616 32.2022 201.424 31.9629C201.329 31.7716 201.042 31.9629 201.137 32.1543Z" fill="#202124"></path><path d="M192.765 24.355C189.416 22.6803 186.114 19.4266 187.167 15.3116C188.124 11.4837 191.712 9.47403 195.444 10.3353C201.425 11.7708 205.683 16.7949 206.688 22.776C206.735 23.0152 207.07 22.9195 207.023 22.6803C206.353 18.8524 204.487 15.3116 201.377 12.8713C198.937 10.9095 195.014 8.99554 191.808 9.85682C189.033 10.6224 186.832 13.4933 186.593 16.3164C186.306 20.1922 189.368 23.0152 192.526 24.5943C192.765 24.7856 192.956 24.4986 192.765 24.355Z" fill="#202124"></path><path d="M193.004 23.6374C196.306 18.996 202.573 18.6611 206.401 22.8239C206.544 23.0153 206.831 22.7282 206.64 22.5847C202.669 18.2304 196.114 18.6611 192.67 23.446C192.574 23.6374 192.861 23.8287 193.004 23.6374Z" fill="#202124"></path><path d="M200.085 33.5898C199.32 35.6952 201.569 36.9392 203.387 36.4129C205.54 35.7909 207.645 33.5898 207.788 31.3409C207.788 31.1017 207.453 31.1017 207.406 31.3409C207.262 33.0156 206.066 34.3554 204.726 35.3124C204.056 35.7909 203.291 36.1737 202.43 36.1737C201.042 36.2215 199.846 35.0731 200.372 33.6377C200.516 33.4463 200.181 33.3506 200.085 33.5898Z" fill="#202124"></path><path d="M198.028 22.9674C197.549 24.6421 197.023 27.8001 199.272 28.4221C199.511 28.47 199.607 28.135 199.367 28.0872C197.406 27.513 197.932 24.4985 198.363 23.0631C198.41 22.8717 198.076 22.776 198.028 22.9674Z" fill="#202124"></path><path d="M201.855 23.398C201.855 23.8287 201.664 24.1636 201.425 24.1636C201.186 24.1636 200.994 23.8287 200.994 23.398C200.994 22.9674 201.186 22.6324 201.425 22.6324C201.664 22.6324 201.855 22.9674 201.855 23.398Z" fill="#202124"></path><path d="M136.404 74.8354C136.213 75.1225 136.404 120.531 136.404 120.531L193.865 129.192C194.296 112.158 194.775 95.1233 195.205 78.0892C175.637 77.0365 156.021 75.936 136.404 74.8354Z" fill="#B1CEFC"></path><path d="M144.729 83.4961L183.962 86.9891" stroke="white" stroke-miterlimit="10"></path><path d="M145.017 90.2428L185.206 93.8315" stroke="white" stroke-miterlimit="10"></path><path d="M144.538 100.961L189.655 105.219" stroke="white" stroke-miterlimit="10"></path><path d="M141.572 113.258C142.576 113.258 143.39 112.444 143.39 111.44C143.39 110.436 142.576 109.621 141.572 109.621C140.568 109.621 139.754 110.436 139.754 111.44C139.754 112.444 140.568 113.258 141.572 113.258Z" stroke="white" stroke-miterlimit="10"></path><path d="M140.854 84.6923C141.832 84.6923 142.624 83.8997 142.624 82.9219C142.624 81.9441 141.832 81.1515 140.854 81.1515C139.877 81.1515 139.084 81.9441 139.084 82.9219C139.084 83.8997 139.877 84.6923 140.854 84.6923Z" stroke="white" stroke-miterlimit="10"></path><path d="M144.729 100.674C144.777 100.243 144.873 99.7646 144.921 99.334C144.969 99.0947 144.586 99.0947 144.538 99.334C144.49 99.7646 144.395 100.243 144.347 100.674C144.347 100.913 144.682 100.913 144.729 100.674Z" fill="white"></path><path d="M144.825 99.3819C159.513 100.77 174.154 102.157 188.842 103.545C189.081 103.545 189.081 103.21 188.842 103.162C174.154 101.774 159.513 100.387 144.825 98.9991C144.634 98.9991 144.634 99.3819 144.825 99.3819Z" fill="white"></path><path d="M189.225 103.401C189.225 103.832 189.225 104.31 189.225 104.741C189.225 104.98 189.607 104.98 189.607 104.741C189.607 104.31 189.607 103.832 189.607 103.401C189.56 103.162 189.225 103.162 189.225 103.401Z" fill="white"></path><path d="M145.208 90.1471C145.304 89.6686 145.351 89.238 145.304 88.7595C145.304 88.5203 144.921 88.5203 144.921 88.7595C144.969 89.1902 144.921 89.6208 144.825 90.0514C144.825 90.2907 145.16 90.3864 145.208 90.1471Z" fill="white"></path><path d="M145.351 88.9031C158.508 89.7165 171.666 90.6735 184.823 91.7261C185.062 91.7261 185.062 91.3912 184.823 91.3433C171.666 90.2907 158.508 89.3337 145.351 88.5203C145.112 88.5203 145.112 88.8552 145.351 88.9031Z" fill="white"></path><path d="M185.062 91.9653C185.062 92.4438 185.062 92.9223 185.062 93.4008C185.062 93.64 185.445 93.64 185.445 93.4008C185.445 92.9223 185.445 92.4438 185.445 91.9653C185.397 91.7261 185.062 91.7261 185.062 91.9653Z" fill="white"></path><path d="M145.16 83.3047C145.256 82.7784 145.303 82.252 145.256 81.6778C145.256 81.4386 144.873 81.4386 144.873 81.6778C144.921 82.2042 144.921 82.6827 144.825 83.209C144.777 83.4482 145.112 83.5439 145.16 83.3047Z" fill="white"></path><path d="M145.447 81.8214C158.078 82.7784 170.805 82.587 183.34 84.6923C183.579 84.7402 183.675 84.4052 183.435 84.3574C170.9 82.2042 158.126 82.3956 145.447 81.4386C145.208 81.4386 145.208 81.7735 145.447 81.8214Z" fill="white"></path><path d="M183.723 84.9315C183.723 85.3143 183.723 85.6971 183.723 86.0799C183.723 86.3191 184.105 86.3191 184.105 86.0799C184.105 85.6971 184.105 85.3143 184.105 84.9315C184.058 84.6923 183.723 84.6923 183.723 84.9315Z" fill="white"></path><path d="M145.208 92.9224C144.586 93.7836 143.964 94.5971 143.342 95.4583C143.246 95.554 143.39 95.7454 143.486 95.7454C144.347 95.7454 145.112 95.9368 145.878 96.3675C146.069 96.4632 146.261 96.1761 146.069 96.0804C145.256 95.6019 144.395 95.4105 143.486 95.4105C143.533 95.5062 143.581 95.6019 143.629 95.6976C144.251 94.8363 144.873 94.0229 145.495 93.1616C145.686 92.9224 145.352 92.731 145.208 92.9224Z" fill="white"></path><path d="M148.03 96.3196C148.7 95.4105 149.418 94.5013 150.088 93.5922C150.231 93.4008 149.896 93.2094 149.8 93.4008C149.131 94.3099 148.413 95.2191 147.743 96.1282C147.552 96.3196 147.887 96.511 148.03 96.3196Z" fill="white"></path><path d="M151.475 95.3627C158.843 95.6019 166.259 96.7024 173.579 97.4202C173.819 97.4202 173.819 97.0852 173.579 97.0374C166.259 96.3196 158.843 95.1713 151.475 94.9799C151.236 95.0277 151.236 95.3627 151.475 95.3627Z" fill="white"></path><path d="M173.579 95.2669C174.058 95.5062 174.488 95.7454 174.967 95.9368C175.397 96.1282 175.971 96.3196 176.354 96.6067C176.45 96.6545 176.498 96.7024 176.593 96.7502C176.593 96.9895 176.498 97.1809 176.306 97.2766C176.163 97.4201 175.924 97.5637 175.78 97.7072C175.349 98.0421 174.919 98.3771 174.44 98.712C174.249 98.8556 174.44 99.1427 174.632 98.9991C175.254 98.5206 175.876 98.0421 176.498 97.5637C176.737 97.3723 177.215 97.133 177.12 96.7502C177.024 96.3674 176.354 96.176 176.019 96.0325C175.254 95.6497 174.536 95.2669 173.771 94.932C173.579 94.8841 173.388 95.1712 173.579 95.2669Z" fill="white"></path><path d="M145.256 103.497C144.49 104.31 143.772 105.172 143.007 105.985C142.911 106.081 142.959 106.272 143.103 106.272C144.012 106.464 144.873 106.607 145.782 106.798C146.021 106.846 146.117 106.511 145.877 106.464C144.968 106.272 144.107 106.129 143.198 105.937C143.246 106.033 143.246 106.129 143.294 106.224C144.059 105.411 144.777 104.55 145.543 103.736C145.638 103.593 145.399 103.353 145.256 103.497Z" fill="white"></path><path d="M147.409 107.277C148.605 106.176 149.801 105.076 151.045 103.975C151.237 103.832 150.95 103.545 150.806 103.736C149.61 104.837 148.414 105.937 147.17 107.038C146.979 107.181 147.218 107.42 147.409 107.277Z" fill="white"></path><path d="M151.14 105.746C154.25 105.889 157.36 106.033 160.47 106.176C160.709 106.176 160.709 105.841 160.47 105.794C157.36 105.65 154.25 105.506 151.14 105.363C150.901 105.363 150.901 105.746 151.14 105.746Z" fill="white"></path><path d="M159.704 104.167C160.996 105.076 162.431 105.746 164.01 106.176C164.01 106.081 163.962 105.937 163.962 105.842C162.814 106.464 161.857 107.277 161.14 108.33C160.996 108.521 161.331 108.712 161.427 108.521C162.144 107.516 163.053 106.703 164.154 106.129C164.297 106.033 164.25 105.842 164.106 105.794C162.575 105.411 161.187 104.741 159.896 103.832C159.704 103.736 159.513 104.023 159.704 104.167Z" fill="white"></path><path d="M228.553 49.2842C229.462 50.0976 228.553 91.2476 228.553 91.2476L272.761 72.9693V36.5564L228.553 49.2842Z" fill="white" stroke="#202124" stroke-miterlimit="10"></path><path d="M231.806 55.2653C232.678 55.2653 233.385 54.5584 233.385 53.6863C233.385 52.8142 232.678 52.1073 231.806 52.1073C230.934 52.1073 230.228 52.8142 230.228 53.6863C230.228 54.5584 230.934 55.2653 231.806 55.2653Z" stroke="#202124" stroke-miterlimit="10"></path><path d="M232.668 82.7784C233.751 82.7784 234.629 81.9 234.629 80.8165C234.629 79.7331 233.751 78.8547 232.668 78.8547C231.584 78.8547 230.706 79.7331 230.706 80.8165C230.706 81.9 231.584 82.7784 232.668 82.7784Z" stroke="#202124" stroke-miterlimit="10"></path><path d="M231.806 54.3083C232.715 54.3083 232.715 52.8728 231.806 52.8728C230.897 52.8728 230.897 54.3083 231.806 54.3083Z" fill="#202124"></path><path d="M231.998 81.4865C232.045 81.5344 232.045 81.5344 232.093 81.5822C232.38 81.8693 232.811 81.8693 233.098 81.5822C233.385 81.2951 233.385 80.8645 233.098 80.5774C233.05 80.5295 233.05 80.5295 233.002 80.4817C232.715 80.1946 232.285 80.1946 231.998 80.4817C231.71 80.7688 231.71 81.2473 231.998 81.4865Z" fill="#202124"></path><path d="M237.931 50.289C237.357 51.0067 236.783 51.8202 236.304 52.5858C236.256 52.6815 236.304 52.8728 236.448 52.8728C237.165 52.8728 237.835 52.8728 238.553 52.825C238.792 52.825 238.792 52.4422 238.553 52.4422C237.835 52.4422 237.165 52.4422 236.448 52.4901C236.495 52.5858 236.543 52.6815 236.591 52.7772C237.07 52.0116 237.596 51.246 238.17 50.5283C238.314 50.3847 238.074 50.1455 237.931 50.289Z" fill="#202124"></path><path d="M240.993 49.7626C240.323 50.6718 239.844 51.6287 239.509 52.6814C239.414 52.9206 239.796 53.0163 239.844 52.7771C240.179 51.7723 240.658 50.8153 241.328 49.954C241.423 49.7626 241.088 49.5712 240.993 49.7626Z" fill="#202124"></path><path d="M242.523 49.3798C243.049 49.6669 243.623 49.9062 244.197 50.0976C244.341 50.1454 244.484 50.1454 244.484 50.3368C244.484 50.3847 244.149 50.7196 244.054 50.7675C243.767 51.0545 243.528 51.3416 243.24 51.5809C243.097 51.7244 243.336 52.0115 243.48 51.8201C243.862 51.4373 244.245 51.0546 244.628 50.6239C244.771 50.4804 244.963 50.289 244.867 50.0497C244.771 49.8105 244.389 49.8105 244.197 49.7148C243.671 49.5712 243.193 49.332 242.666 49.0928C242.475 48.9492 242.284 49.2841 242.523 49.3798Z" fill="#202124"></path><path d="M237.355 56.0309C237.403 56.4615 237.451 56.8921 237.499 57.2749C237.547 57.5142 237.882 57.5142 237.882 57.2749C237.834 56.8443 237.786 56.4137 237.738 56.0309C237.69 55.7916 237.355 55.7916 237.355 56.0309Z" fill="#202124"></path><path d="M237.931 56.1266C246.064 53.7341 254.245 51.2938 262.379 48.9014C262.618 48.8535 262.523 48.4707 262.283 48.5664C254.15 50.9589 245.968 53.3992 237.835 55.7916C237.596 55.8395 237.691 56.2223 237.931 56.1266Z" fill="#202124"></path><path d="M239.222 57.5141C247.021 55.1695 254.868 52.8728 262.666 50.5282C262.905 50.4804 262.81 50.0976 262.57 50.1933C254.772 52.5379 246.925 54.8346 239.127 57.1792C238.935 57.227 239.031 57.562 239.222 57.5141Z" fill="#202124"></path><path d="M262.331 48.8536C262.379 49.1885 262.427 49.5235 262.522 49.8584C262.57 50.0977 262.905 50.002 262.857 49.7627C262.809 49.4278 262.761 49.0928 262.666 48.7579C262.618 48.5665 262.283 48.6622 262.331 48.8536Z" fill="#202124"></path><path d="M242.906 58.6146C243.002 58.9974 243.05 59.3802 243.145 59.8109C243.193 60.0501 243.528 59.9544 243.48 59.7152C243.384 59.3324 243.337 58.9496 243.241 58.519C243.193 58.2797 242.858 58.3754 242.906 58.6146Z" fill="#202124"></path><path d="M243.337 58.3755C250.896 56.2701 258.456 54.0212 265.967 51.7245C266.206 51.6767 266.111 51.2939 265.871 51.3896C258.36 53.7342 250.8 55.9352 243.241 58.0405C243.05 58.0884 243.145 58.4233 243.337 58.3755Z" fill="#202124"></path><path d="M244.102 60.098C251.757 57.6577 259.46 55.2174 267.116 52.7771C267.355 52.7293 267.259 52.3465 267.02 52.4422C259.365 54.8825 251.662 57.3227 244.007 59.763C243.815 59.8109 243.911 60.1458 244.102 60.098Z" fill="#202124"></path><path d="M266.493 51.246C266.541 51.5331 266.541 51.8201 266.589 52.1072C266.589 52.3465 266.972 52.3465 266.972 52.1072C266.924 51.8201 266.924 51.5331 266.876 51.246C266.828 51.0546 266.446 51.0546 266.493 51.246Z" fill="#202124"></path><path d="M237.882 64.5958C237.356 65.3136 236.829 66.0313 236.303 66.749C236.255 66.8447 236.303 66.9883 236.399 67.0361C237.116 67.1318 237.834 67.2275 238.552 67.2754C238.791 67.2754 238.791 66.9404 238.552 66.8926C237.882 66.8447 237.164 66.7969 236.494 66.7012C236.542 66.7969 236.542 66.8926 236.59 66.9883C237.116 66.2705 237.643 65.5528 238.169 64.8351C238.312 64.5958 238.025 64.4044 237.882 64.5958Z" fill="#202124"></path><path d="M240.323 64.2608C239.796 65.1221 239.318 66.0312 238.983 66.9403C238.887 67.1796 239.27 67.2274 239.318 67.036C239.653 66.1269 240.083 65.2656 240.61 64.4522C240.753 64.2608 240.466 64.0694 240.323 64.2608Z" fill="#202124"></path><path d="M241.423 65.3614C246.255 64.1652 251.087 62.8732 255.92 61.5335C256.159 61.4856 256.063 61.1028 255.824 61.1985C251.039 62.5861 246.207 63.8302 241.327 65.0264C241.088 65.0743 241.184 65.4571 241.423 65.3614Z" fill="#202124"></path><path d="M255.633 60.6243C256.302 61.0549 257.02 61.3899 257.738 61.6291C257.977 61.7248 258.073 61.342 257.833 61.2942C257.116 61.0549 256.446 60.72 255.824 60.3372C255.585 60.1937 255.441 60.4808 255.633 60.6243Z" fill="#202124"></path><path d="M257.498 59.5238C258.407 59.763 259.316 59.9544 260.273 60.098C260.225 60.0023 260.178 59.9066 260.13 59.8109C259.699 60.2894 259.364 60.8636 259.173 61.4856C259.077 61.7248 259.46 61.8205 259.508 61.5813C259.699 61.0071 259.986 60.5286 260.369 60.0501C260.465 59.9066 260.417 59.763 260.225 59.763C259.316 59.6673 258.455 59.476 257.546 59.2367C257.355 59.141 257.259 59.476 257.498 59.5238Z" fill="#202124"></path><path d="M236.591 70.9118C236.543 71.2467 236.495 71.5817 236.399 71.9166C236.351 72.1558 236.686 72.2515 236.734 72.0123C236.782 71.6774 236.83 71.3424 236.925 71.0075C236.973 70.7682 236.638 70.6725 236.591 70.9118Z" fill="#202124"></path><path d="M237.5 70.7204C245.346 68.5672 253.145 66.2227 260.896 63.6867C261.135 63.6388 261.039 63.256 260.8 63.3517C253.049 65.8877 245.251 68.2323 237.404 70.3855C237.165 70.4334 237.261 70.7683 237.5 70.7204Z" fill="#202124"></path><path d="M238.6 72.2995C246.256 69.6678 254.006 67.2275 261.757 64.9308C261.996 64.883 261.901 64.5002 261.662 64.5959C253.863 66.8926 246.16 69.3329 238.505 71.9646C238.313 72.0124 238.361 72.3474 238.6 72.2995Z" fill="#202124"></path><path d="M261.326 63.7345C261.374 63.9737 261.374 64.2608 261.422 64.5001C261.47 64.7393 261.805 64.7393 261.805 64.5001C261.757 64.2608 261.757 63.9737 261.709 63.7345C261.661 63.4952 261.279 63.4952 261.326 63.7345Z" fill="#202124"></path><path d="M24.4965 0.239258L20.6211 81.9172L114.587 87.8983L122.003 1.24408L24.4965 0.239258Z" fill="white" stroke="#202124" stroke-miterlimit="10"></path><path d="M33.1557 16.8907C35.0847 16.8907 36.6484 15.3269 36.6484 13.3977C36.6484 11.4686 35.0847 9.90479 33.1557 9.90479C31.2268 9.90479 29.6631 11.4686 29.6631 13.3977C29.6631 15.3269 31.2268 16.8907 33.1557 16.8907Z" fill="#B1CEFC"></path><path d="M32.6773 45.1215C34.342 45.1215 35.6915 43.7719 35.6915 42.107C35.6915 40.4422 34.342 39.0925 32.6773 39.0925C31.0126 39.0925 29.6631 40.4422 29.6631 42.107C29.6631 43.7719 31.0126 45.1215 32.6773 45.1215Z" fill="#B1CEFC"></path><path d="M43.9688 12.2014L109.994 13.3976" stroke="#B1CEFC" stroke-miterlimit="10"></path><path d="M43.9688 19.6659L109.994 20.8143" stroke="#B1CEFC" stroke-miterlimit="10"></path><path d="M43.8252 27.2738L109.85 28.4222" stroke="#B1CEFC" stroke-miterlimit="10"></path><path d="M43.6816 35.4561L109.707 36.6044" stroke="#B1CEFC" stroke-miterlimit="10"></path><path d="M43.3955 44.5472L109.421 45.6956" stroke="#B1CEFC" stroke-miterlimit="10"></path><path d="M77.4111 228.239C77.2675 230.631 77.1719 233.024 77.0283 235.464C98.1277 238.479 108.988 238.813 109.61 236.469C110.137 234.507 103.725 230.775 90.3769 225.177C86.0709 226.181 81.7649 227.234 77.4111 228.239Z" fill="#5492ED"></path><path d="M91.813 225.894C90.6647 226.229 89.8035 227.186 89.66 228.382C89.5643 229.1 89.8514 230.201 90.8083 229.722C91.813 229.196 92.1001 227.808 92.3871 226.851C92.6264 226.134 92.8656 225.272 93.5354 224.794C94.0617 224.459 94.2052 224.411 94.5401 224.985C94.8272 225.511 94.8272 225.607 94.4444 226.086C94.0138 226.612 93.3919 226.851 92.722 226.803C92.4828 226.803 92.4828 227.138 92.722 227.186C93.8225 227.282 95.0664 226.516 95.2099 225.32C95.3056 224.363 94.4444 223.98 93.6311 224.363C92.5307 224.889 92.2436 226.229 91.9087 227.282C91.813 227.665 91.6695 228.047 91.4781 228.382C91.3824 228.574 91.2389 228.909 91.0475 229.052C90.8561 229.196 90.282 229.387 90.0428 229.148C89.7078 228.861 90.1863 227.76 90.3298 227.473C90.6647 226.851 91.2389 226.468 91.9087 226.229C92.1001 226.181 92.0044 225.846 91.813 225.894Z" fill="white"></path><path d="M93.5824 229.722C94.0608 228.765 94.922 228.143 95.9268 227.952C96.166 227.904 96.0703 227.569 95.8311 227.617C94.7307 227.856 93.7738 228.574 93.2475 229.579C93.1518 229.77 93.4867 229.961 93.5824 229.722Z" fill="white"></path><path d="M95.6882 230.536C96.0709 229.626 96.9321 229.004 97.9847 229.004C98.2239 229.004 98.2239 228.622 97.9847 228.622C96.8364 228.622 95.8317 229.291 95.4011 230.344C95.3054 230.536 95.5925 230.727 95.6882 230.536Z" fill="white"></path><path d="M97.6021 231.062C98.0805 230.248 98.9417 229.77 99.8986 229.818C100.138 229.818 100.138 229.483 99.8986 229.435C98.846 229.435 97.8413 229.961 97.2672 230.871C97.1715 231.11 97.4586 231.253 97.6021 231.062Z" fill="white"></path><path d="M100.185 232.067C100.711 231.397 101.477 231.014 102.338 231.014C102.577 231.014 102.577 230.631 102.338 230.631C101.381 230.679 100.52 231.062 99.9456 231.828C99.8021 231.971 100.041 232.21 100.185 232.067Z" fill="white"></path><path d="M77.7947 234.029C84.9235 234.746 92.0044 235.608 99.0375 236.66C99.2768 236.708 99.3724 236.325 99.1332 236.325C92.0523 235.273 84.9235 234.363 77.7947 233.646C77.5554 233.646 77.5554 233.981 77.7947 234.029Z" fill="white"></path><path d="M38.897 174.648C39.0405 175.318 39.9496 176.084 41.8155 177.567C43.1551 178.668 46.0258 180.821 49.9012 182.352C57.5085 185.366 66.3597 185.079 69.1825 184.936C72.6273 184.744 78.0337 183.644 88.703 181.347C90.7124 180.916 100.329 178.907 102.53 178.428C101.86 179.433 100.903 180.916 99.8029 182.687C96.2624 188.429 94.6357 191.97 89.8512 201.922C84.0142 213.98 83.3923 215.033 80.9522 220.535C79.2776 224.363 77.938 227.569 76.9811 229.866C78.1294 229.148 79.4212 228.382 80.9044 227.713C84.2535 226.181 87.3155 225.512 89.7556 225.177C90.7124 223.98 92.1478 222.21 93.8223 220.057C99.8029 212.449 105.592 205.08 111.955 195.845C111.955 195.845 116.788 188.811 122.433 178.189C122.864 177.423 124.538 174.122 125.447 169.528C126.069 166.323 126.691 163.021 125.017 159.911C124.012 158.093 122.672 157.088 121.716 156.37C118.797 154.169 115.687 153.547 113.917 153.308C106.597 152.207 99.3244 153.451 90.8081 154.743C87.8896 155.174 83.3923 155.844 77.8423 156.561C75.4501 156.705 72.0531 156.992 68.0342 157.805C52.8675 161.011 37.8444 169.863 38.897 174.648Z" fill="white"></path><path d="M38.7532 174.744C45.2122 182.256 55.2117 185.127 64.8763 185.223C77.4593 185.366 89.5161 180.869 101.716 178.62C101.956 178.572 101.86 178.237 101.621 178.285C89.851 180.438 78.3205 184.649 66.2638 184.84C56.2643 185.031 45.7385 182.256 38.9925 174.457C38.8489 174.313 38.6097 174.6 38.7532 174.744Z" fill="#202124"></path><path d="M101.812 178.572C92.961 194.745 84.7796 211.3 77.2681 228.143C77.1724 228.335 77.5073 228.526 77.5551 228.335C85.0667 211.492 93.2481 194.936 102.099 178.763C102.243 178.524 101.908 178.38 101.812 178.572Z" fill="#202124"></path><path d="M77.842 156.753C85.9756 155.604 94.1091 154.265 102.29 153.403C109.276 152.686 118.318 152.542 123.486 158.236C129.227 164.504 123.581 175.844 120.28 182.017C116.596 188.859 112.194 195.415 107.649 201.731C102.386 209.051 96.7405 216.133 91.0949 223.215C90.9514 223.406 91.1906 223.645 91.3341 223.454C102.147 209.913 113.39 196.18 121.333 180.725C124.251 175.031 128.366 166.227 125.064 159.911C121.859 153.786 113.199 152.59 107.027 152.733C97.2668 152.973 87.363 155.078 77.6985 156.418C77.5071 156.466 77.6028 156.801 77.842 156.753Z" fill="#202124"></path><path d="M79.3729 228.765C82.8177 226.803 86.4539 225.655 90.425 225.368C90.6642 225.368 90.6642 224.985 90.425 224.985C86.406 225.272 82.6742 226.421 79.2294 228.43C78.9902 228.574 79.1337 228.909 79.3729 228.765Z" fill="#202124"></path><path d="M101.43 208.43C100.665 210.87 99.8514 213.31 99.0859 215.75C116.023 226.564 125.209 231.11 126.692 229.339C127.984 227.76 123.104 221.109 112.052 209.482C111.238 208.908 109.947 208.142 108.176 207.712C105.019 206.994 102.387 207.999 101.43 208.43Z" fill="#5492ED"></path><path d="M112.004 210.056C111.143 210.391 110.377 210.918 109.803 211.635C109.468 212.066 108.798 212.975 109.181 213.501C109.612 214.123 110.569 213.454 110.951 213.119C111.621 212.544 112.1 211.731 112.243 210.822C112.291 210.583 111.956 210.487 111.908 210.726C111.813 211.3 111.573 211.875 111.191 212.353C110.951 212.64 109.42 214.028 109.468 212.927C109.468 212.449 110.138 211.731 110.425 211.444C110.904 210.965 111.478 210.583 112.1 210.343C112.339 210.296 112.243 209.961 112.004 210.056Z" fill="white"></path><path d="M112.386 210.583C112.53 209.865 113.104 208.908 113.917 208.812C114.3 208.764 114.396 209.147 114.204 209.434C114.109 209.626 113.965 209.769 113.822 209.913C113.535 210.2 113.152 210.391 112.769 210.535C112.578 210.631 112.721 210.966 112.96 210.822C113.535 210.535 114.157 210.2 114.491 209.626C114.731 209.243 114.826 208.669 114.348 208.429C113.248 207.951 112.243 209.53 112.051 210.391C111.956 210.678 112.338 210.822 112.386 210.583Z" fill="white"></path><path d="M112.673 212.64C113.056 212.066 113.534 211.635 114.156 211.348C114.348 211.253 114.204 210.918 113.965 211.061C113.295 211.396 112.721 211.875 112.338 212.497C112.243 212.64 112.578 212.832 112.673 212.64Z" fill="white"></path><path d="M113.631 214.076C114.109 213.31 114.779 212.784 115.64 212.497C115.88 212.449 115.784 212.066 115.545 212.162C114.636 212.449 113.822 213.071 113.344 213.884C113.2 214.076 113.535 214.267 113.631 214.076Z" fill="white"></path><path d="M114.875 215.32C115.353 214.65 115.928 214.123 116.693 213.789C116.884 213.693 116.741 213.358 116.502 213.501C115.736 213.884 115.066 214.458 114.588 215.176C114.444 215.32 114.731 215.511 114.875 215.32Z" fill="white"></path><path d="M115.736 216.803C116.214 216.038 116.884 215.415 117.697 215.081C117.889 214.985 117.745 214.698 117.506 214.793C116.597 215.176 115.879 215.846 115.401 216.66C115.305 216.803 115.64 216.994 115.736 216.803Z" fill="white"></path><path d="M117.219 217.999C117.841 217.473 118.463 216.947 119.085 216.468C119.276 216.325 118.989 216.085 118.845 216.229C118.223 216.755 117.602 217.282 116.98 217.76C116.788 217.904 117.027 218.143 117.219 217.999Z" fill="white"></path><path d="M99.7082 215.08C104.158 217.521 108.416 220.2 112.578 223.119C112.77 223.263 112.961 222.928 112.77 222.832C108.607 219.961 104.301 217.282 99.8996 214.793C99.7082 214.65 99.5168 214.937 99.7082 215.08Z" fill="white"></path><path d="M77.795 142.637C76.3596 143.307 74.3502 144.456 72.245 146.178C70.5226 147.566 64.3985 152.733 62.6283 161.729C61.5757 166.992 62.4848 171.442 63.2503 174.122C64.5421 174.744 66.5515 175.557 69.1351 176.131C72.1972 176.801 74.8765 176.801 81.4311 176.275C86.5505 175.844 89.1341 175.605 92.8181 175.079C97.9375 174.313 104.923 173.213 113.439 170.15C114.779 169.672 115.879 169.241 116.645 168.906C116.405 169.48 116.023 170.39 115.544 171.49C112.961 177.615 110.999 182.591 108.702 188.429C105.593 196.372 102.818 203.692 100.521 209.817C101.43 209.099 102.818 208.334 104.588 207.903C105.688 207.664 107.124 207.329 108.75 207.951C110.138 208.477 111.047 209.386 111.43 209.913C112.052 209.099 113.056 207.807 114.157 206.181C116.31 203.07 117.697 200.63 118.271 199.721C120.089 196.611 122.912 192.257 128.51 183.548C130.663 180.246 132.72 176.897 134.825 173.548C136.404 171.06 137.888 168.811 139.131 165.366C140.328 162.112 140.567 159.959 140.615 158.954C140.71 157.136 140.854 154.887 139.706 152.446C139.179 151.346 138.318 150.006 136.356 148.475C132.003 145.03 126.931 144.216 125.209 143.977C111.143 141.92 104.109 140.867 100.712 140.819C94.8276 140.723 86.9811 141.058 77.795 142.637Z" fill="white"></path><path d="M77.8427 142.829C87.7943 141.058 97.8895 140.484 107.937 141.345C117.41 142.111 128.127 143.499 136.309 148.618C136.5 148.762 136.691 148.427 136.5 148.331C128.462 143.307 118.128 141.92 108.846 141.106C98.4636 140.149 87.9857 140.676 77.747 142.542C77.5077 142.542 77.6034 142.877 77.8427 142.829Z" fill="#202124"></path><path d="M63.1543 174.265C66.5991 176.179 70.4266 176.61 74.3499 176.658C79.1822 176.658 84.0623 176.323 88.8946 175.749C98.3678 174.6 107.65 172.399 116.644 169.193C116.884 169.098 116.788 168.763 116.549 168.858C107.889 171.921 98.9419 174.122 89.8036 175.318C85.4019 175.892 80.9524 176.227 76.5029 176.323C72.0055 176.419 67.4124 176.275 63.3935 174.026C63.1543 173.835 62.9629 174.17 63.1543 174.265Z" fill="#202124"></path><path d="M116.453 168.763C110.856 181.778 105.784 194.984 101.239 208.382C101.143 208.621 101.526 208.717 101.574 208.477C106.119 195.127 111.191 181.921 116.74 168.954C116.884 168.763 116.549 168.571 116.453 168.763Z" fill="#202124"></path><path d="M139.562 152.446C143.342 163.117 134.682 173.404 129.324 181.873C123.487 191.06 117.697 200.247 111.86 209.386C111.717 209.578 112.052 209.769 112.148 209.578C118.463 199.625 124.778 189.625 131.142 179.672C136.213 171.729 143.438 162.351 139.897 152.399C139.849 152.159 139.514 152.255 139.562 152.446Z" fill="#202124"></path><path d="M102.196 209.578C105.019 207.855 109.038 206.659 111.287 209.913C111.43 210.104 111.717 209.913 111.574 209.721C109.229 206.324 104.971 207.425 102.005 209.243C101.813 209.434 101.957 209.721 102.196 209.578Z" fill="#202124"></path><path d="M35.5961 137.9C36.1223 137.183 35.931 137.613 37.6055 135.699C40.8589 132.063 42.4378 130.197 43.4904 128.522C44.0645 127.613 44.6865 126.512 45.4042 126.608C45.8826 126.656 46.2175 127.182 46.5524 127.756C47.4615 129.288 47.4136 130.867 47.4136 131.058C47.3658 132.111 47.0787 132.446 46.2653 134.36C45.0214 137.422 45.3563 137.565 44.3994 139.384C43.6818 140.723 43.0119 141.633 42.2464 142.637C40.9068 144.408 39.902 145.317 39.5193 145.652C38.3232 146.704 37.6534 147.279 36.6008 147.374C36.3616 147.374 35.1176 147.518 34.3043 146.8C32.5819 145.365 33.5387 140.867 35.5961 137.9Z" fill="white"></path><path d="M4.54549 82.0128C3.30153 86.702 2.24896 91.774 1.48345 97.2288C0.622247 103.449 0.478714 108.186 0.335181 112.158C0.0959588 120.101 0.670091 118.043 0.574403 127.661C0.574403 129.144 0.478714 132.302 1.53129 136.226C2.44033 139.671 3.44507 141.058 3.87566 141.537C5.59806 143.69 7.70321 144.551 9.42561 145.269C11.5308 146.13 13.5881 146.465 17.5592 147.039C19.6165 147.326 21.3389 147.518 22.4871 147.614C25.0707 147.805 27.8935 147.901 30.9556 147.805C32.965 147.757 34.8788 147.614 36.6491 147.374C36.8404 146.417 37.0318 145.173 36.984 143.738C36.8883 141.489 36.2663 139.671 35.74 138.57C33.2043 136.417 31.0513 134.79 29.6159 133.69C28.2763 132.685 26.6496 131.489 23.444 129C21.004 127.134 19.9992 125.986 19.2816 124.598C18.4682 123.019 18.3725 121.632 18.3725 116.56C18.3725 113.45 18.3725 111.918 18.4682 108.808C18.6596 103.258 18.516 103.832 18.6596 97.4202C18.8988 87.5155 19.2337 86.8456 18.3725 85.5058C17.5592 84.166 14.7842 81.1516 4.54549 82.0128Z" fill="white"></path><path d="M4.44939 82.7785C1.91364 91.152 0.717531 99.8127 0.286931 108.521C-0.0958236 116.703 -0.239357 125.268 0.81322 133.403C1.19597 136.226 1.8658 139.144 3.58819 141.537C5.40628 144.025 8.03772 145.221 10.9562 145.939C19.2812 148.092 28.0845 148.523 36.6487 147.614C36.8879 147.566 36.8879 147.231 36.6487 147.231C28.6586 148.092 20.5251 147.709 12.6786 145.939C8.85108 145.078 5.26275 143.834 3.20544 140.245C1.53089 137.278 1.10029 133.69 0.908908 130.34C-0.0958235 114.502 0.191243 98.1858 4.83215 82.8742C4.87999 82.6349 4.49724 82.5392 4.44939 82.7785Z" fill="#202124"></path><path d="M18.5161 96.0804C18.4682 100.722 18.3725 105.363 18.3247 110.052C18.2768 112.54 18.229 115.028 18.229 117.517C18.1811 119.191 18.0376 120.962 18.3725 122.589C19.0423 125.938 21.8652 127.996 24.4009 129.957C28.1328 132.876 31.9125 135.795 35.6444 138.761C35.8357 138.905 36.075 138.666 35.8836 138.522C32.3909 135.795 28.8983 133.067 25.4057 130.34C22.2001 127.852 18.8031 125.46 18.5639 121.01C18.1811 112.78 18.8031 104.406 18.8988 96.1282C18.8988 95.8411 18.5161 95.8411 18.5161 96.0804Z" fill="#202124"></path><path d="M35.7397 139.814C36.6009 141.633 36.8879 143.594 36.6966 145.556C36.6487 145.795 37.0315 145.795 37.0793 145.556C37.3185 143.499 36.9836 141.489 36.0746 139.623C35.9789 139.431 35.644 139.575 35.7397 139.814Z" fill="#202124"></path><path d="M39.0889 144.264C40.285 142.302 41.6247 140.484 43.2035 138.857C44.0647 137.948 45.9307 136.848 46.1699 135.46C46.3613 134.024 44.6389 133.211 44.1604 134.694C44.0647 134.934 44.4475 135.029 44.4953 134.79C44.6867 135.412 44.8781 135.986 45.0695 136.608C44.9259 136.752 44.7824 136.895 44.6389 136.991C44.3996 137.326 43.969 137.613 43.682 137.9C42.9643 138.57 42.2945 139.288 41.6725 140.053C40.6199 141.297 39.6631 142.685 38.8019 144.073C38.6583 144.264 38.9932 144.455 39.0889 144.264Z" fill="#202124"></path><path d="M36.553 137.326C39.1366 134.025 41.8159 130.771 44.543 127.565C44.6865 127.374 44.4473 127.134 44.3038 127.326C41.5288 130.484 38.8974 133.737 36.3138 137.087C36.1703 137.278 36.4095 137.518 36.553 137.326Z" fill="#202124"></path><path d="M43.1074 133.69C44.4949 131.871 45.691 129.957 46.7436 127.9C46.8393 127.709 46.5522 127.517 46.4565 127.709C45.404 129.766 44.2079 131.68 42.8204 133.498C42.6768 133.69 42.9639 133.881 43.1074 133.69Z" fill="#202124"></path><path d="M46.7442 127.517C46.8877 129.575 46.2657 131.441 44.8782 132.972C44.7347 133.163 44.9739 133.402 45.1175 133.211C46.5528 131.632 47.2705 129.622 47.0791 127.517C47.0791 127.278 46.7442 127.278 46.7442 127.517Z" fill="#202124"></path><path d="M47.2222 129.287C47.4136 131.058 47.0308 132.733 46.1218 134.264C46.0261 134.455 46.3132 134.647 46.4089 134.455C47.3658 132.876 47.7485 131.106 47.5571 129.287C47.5571 129.096 47.2222 129.048 47.2222 129.287Z" fill="#202124"></path><path d="M39.7109 145.795C42.1989 143.403 44.1605 140.628 45.6436 137.47C45.7393 137.278 45.4523 137.087 45.3566 137.278C43.9213 140.388 41.9596 143.164 39.4717 145.508C39.2803 145.7 39.5196 145.987 39.7109 145.795Z" fill="#202124"></path><path d="M5.45444 82.0608C5.21522 84.214 4.92815 87.2763 5.07168 91.0085C5.11953 92.6832 5.26306 94.1665 5.40659 95.6977C6.50701 105.602 8.56432 114.167 8.56432 114.167C12.7268 131.297 20.0948 146.035 20.0948 146.035C26.0275 157.949 32.7736 167.327 38.5627 174.265C40.3808 174.409 43.0123 174.409 46.0265 173.835C52.7247 172.591 57.1264 169.385 60.7625 166.657C64.8293 163.643 71.9103 158.188 75.4029 148.523C76.2641 146.13 76.6947 144.025 76.9339 142.59C76.0727 139.288 74.6853 135.269 72.3887 130.962C70.9534 128.235 69.4224 125.938 67.987 124.024C67.8435 121.584 67.6043 118.234 67.2694 114.263C66.8866 109.67 66.456 104.119 65.6427 96.9896C65.2599 93.6402 64.7336 89.2381 63.9681 84.0226C58.3703 81.678 53.538 80.3382 49.9976 79.5248C44.4476 78.2328 32.6779 75.649 18.0854 78.3764C12.6789 79.4291 8.37294 80.9124 5.45444 82.0608Z" fill="white"></path><path d="M5.55009 82.204C14.6405 77.9933 25.5012 77.2277 35.405 77.7062C45.2131 78.1847 54.8776 80.4336 63.9681 84.2137C64.1595 84.3094 64.2551 83.9744 64.0638 83.8787C54.6863 80.003 44.6868 77.7541 34.5438 77.3234C24.8792 76.9406 14.3056 77.7541 5.40656 81.9169C5.16734 82.0126 5.35871 82.2997 5.55009 82.204Z" fill="#202124"></path><path d="M4.88012 91.5348C7.22449 121.105 18.4679 149.575 36.888 172.782C37.0315 172.973 37.2708 172.686 37.1272 172.543C18.755 149.384 7.5594 121.01 5.21503 91.5348C5.21503 91.2955 4.83227 91.2955 4.88012 91.5348Z" fill="#202124"></path><path d="M65.1162 93.7837C66.2166 103.688 67.1257 113.593 67.7955 123.546C67.7955 123.785 68.1782 123.785 68.1782 123.546C67.5084 113.593 66.5994 103.688 65.499 93.7837C65.4511 93.5444 65.1162 93.5444 65.1162 93.7837Z" fill="#202124"></path><path d="M69.853 126.417C72.006 131.058 73.9677 135.795 75.7857 140.58C75.8814 140.771 76.2163 140.723 76.1207 140.484C74.3026 135.651 72.2931 130.914 70.1401 126.225C70.0923 126.034 69.7574 126.225 69.853 126.417Z" fill="#202124"></path><path d="M38.5629 174.505C47.7011 175.031 55.8347 171.395 62.5807 165.413C68.944 159.767 75.403 152.351 77.0297 143.786C77.0776 143.547 76.7427 143.451 76.6948 143.69C75.116 152.016 69.0397 159.097 62.9635 164.648C56.1696 170.82 47.9404 174.696 38.6107 174.17C38.3715 174.122 38.3715 174.505 38.5629 174.505Z" fill="#202124"></path><path d="M83.8231 59.3804C85.8804 61.8207 87.9855 64.261 90.0428 66.7013C90.4734 66.462 90.904 66.2706 91.3346 66.0314C91.3825 66.6534 91.4303 67.2754 91.4782 67.8975C95.1622 72.0603 98.7984 76.1753 102.482 80.3382C102.578 80.386 102.913 80.6253 103.391 80.4817C103.391 80.4817 103.726 80.386 103.966 80.0989C104.348 79.6204 104.205 78.7592 103.726 77.9457C103.152 77.3237 102.578 76.7017 102.004 76.0796C96.2148 69.8114 90.7127 63.5432 85.4498 57.1794C84.5408 56.653 83.6317 56.0788 82.7705 55.5525C83.1533 56.8923 83.4882 58.1363 83.8231 59.3804Z" fill="white"></path><path d="M92.9619 66.0314C92.8183 64.6438 92.6748 63.2561 92.5791 61.8685C93.2489 62.1078 94.0623 62.4906 94.9235 63.0648C95.976 63.7346 96.7894 64.4524 97.3635 65.0744C97.6506 66.1271 97.9377 67.2754 98.1769 68.6152C98.4161 69.9071 98.5596 71.1034 98.6075 72.2039C98.6553 72.2996 98.6553 72.4431 98.6075 72.4431C98.4161 72.5388 97.3635 71.1512 96.7894 70.4335C95.976 69.3329 94.7321 67.8496 92.9619 66.0314Z" fill="white"></path><path d="M91.3832 66.0314C91.3832 66.6056 91.3832 67.2276 91.3832 67.8018C92.6272 69.1894 93.919 70.577 95.2108 71.9646C96.1676 73.0173 97.1245 74.0221 98.0814 75.0269C97.5073 75.4576 96.8853 75.9361 96.3112 76.5103C95.3543 77.4194 94.5888 78.2807 93.9668 79.0941C92.6272 81.6301 90.0436 82.3478 88.7039 81.5344C87.8427 80.9602 87.46 79.6683 87.5557 78.3764C87.5078 77.5151 87.46 76.271 87.6035 74.8355C87.747 73.0651 87.9384 71.3426 88.8475 69.4765C89.2302 68.6152 89.9957 67.3233 91.3832 66.0314Z" fill="white"></path><path d="M65.7382 84.6924C65.0206 84.4053 64.0637 84.1661 63.0111 84.4532C59.662 85.2666 58.4181 90.4343 57.7482 93.3531C56.9349 96.7503 56.0737 102.827 58.1788 110.914C60.5232 113.402 62.5327 115.364 64.0637 116.751C67.7956 120.244 70.9533 123.163 75.5463 126.082C76.3597 126.608 78.0343 128.426 80.7614 129C82.5795 129.383 83.632 129.048 83.9191 128.953C85.2588 128.522 86.12 127.517 87.0768 125.986C89.3734 122.349 89.9475 118.856 89.9475 118.856C91.5742 108.904 92.3876 103.975 92.3876 103.114C92.6268 97.5637 93.1531 89.6687 94.2056 78.8549C93.8707 78.4721 93.2488 77.8979 92.3397 77.5629C89.9953 76.7017 87.8424 78.1371 87.6031 78.3285C86.9333 80.3382 86.2635 82.3957 85.5937 84.4053C83.632 90.3386 81.8618 96.224 80.2351 101.966C77.6037 99.1428 74.8765 96.0804 72.1494 92.731C69.805 90.0515 67.6999 87.3241 65.7382 84.6924Z" fill="white"></path><path d="M65.6428 84.836C70.9536 91.3434 76.3121 97.8987 81.6229 104.406C81.7664 104.598 82.0056 104.31 81.8621 104.167C76.5514 97.6595 71.1928 91.1042 65.8821 84.5967C65.7385 84.4053 65.4515 84.6446 65.6428 84.836Z" fill="#202124"></path><path d="M80.5222 101.296C82.9144 93.9751 85.1631 86.6064 87.3161 79.2377C87.3639 78.9985 87.029 78.9028 86.9812 79.142C84.8282 86.5586 82.5795 93.8794 80.1873 101.2C80.1394 101.44 80.4743 101.535 80.5222 101.296Z" fill="#202124"></path><path d="M87.8898 78.4242C89.8036 77.0366 92.4829 77.2758 94.0617 79.0462C94.2053 79.2376 94.4923 78.9505 94.3009 78.807C92.6264 76.9409 89.7079 76.6538 87.6984 78.1371C87.507 78.2328 87.6984 78.5199 87.8898 78.4242Z" fill="#202124"></path><path d="M58.0826 111.009C63.1541 116.368 68.6562 121.297 74.6368 125.603C76.8376 127.182 79.5169 129.479 82.4354 129.383C84.9233 129.287 86.5022 127.374 87.6505 125.364C90.9996 119.526 91.478 112.11 92.2914 105.554C93.2961 97.3245 93.7745 88.9988 93.7267 80.7209C93.7267 80.4817 93.344 80.4817 93.344 80.7209C93.344 87.4676 93.0569 94.2622 92.3871 100.961C91.7651 107.516 91.1431 114.454 89.1336 120.77C87.9854 124.359 85.641 129.862 80.9523 128.761C77.9381 128.091 75.1152 125.507 72.6752 123.689C67.508 119.766 62.6757 115.411 58.2262 110.674C58.1783 110.579 57.8913 110.866 58.0826 111.009Z" fill="#202124"></path><path d="M87.6992 78.3286C87.9862 74.7878 87.8427 68.711 91.0961 66.4142C91.2875 66.2707 91.0961 65.9836 90.9047 66.1271C87.4121 68.5674 87.6035 74.5485 87.3164 78.3286C87.3164 78.5678 87.6992 78.5678 87.6992 78.3286Z" fill="#202124"></path><path d="M94.5405 78.4243C95.928 77.4673 97.1241 76.2711 98.1289 74.9313C98.2724 74.7399 97.9375 74.5485 97.8418 74.7399C96.8849 76.0318 95.7367 77.1802 94.397 78.1372C94.2056 78.2329 94.3492 78.5678 94.5405 78.4243Z" fill="#202124"></path><path d="M91.4308 66.0313C91.2394 67.2275 91.0959 68.3759 90.9045 69.5721C90.8567 69.8114 91.2394 69.9071 91.2394 69.6678C91.4308 68.4716 91.5743 67.3232 91.7657 66.127C91.8136 65.9356 91.4787 65.8399 91.4308 66.0313Z" fill="#202124"></path><path d="M91.6214 68.1846C95.2097 72.2996 98.7981 76.3668 102.386 80.4818C102.53 80.6732 102.769 80.3861 102.626 80.2425C99.0373 76.1275 95.449 72.0604 91.8606 67.9454C91.7171 67.754 91.4779 67.9932 91.6214 68.1846Z" fill="#202124"></path><path d="M83.9187 59.6197C85.7368 62.0121 87.6984 64.3089 89.7557 66.5099C89.8992 66.7013 90.1863 66.4142 89.9949 66.2707C87.9855 64.0696 86.0717 61.8207 84.2536 59.4283C84.0622 59.2369 83.7751 59.4283 83.9187 59.6197Z" fill="#202124"></path><path d="M84.0624 59.1412C84.0624 58.4234 84.5409 57.8014 85.2107 57.6578C85.4499 57.61 85.3542 57.2751 85.115 57.3229C84.3017 57.5143 83.6797 58.2799 83.6797 59.1412C83.7275 59.3326 84.1103 59.3326 84.0624 59.1412Z" fill="#202124"></path><path d="M83.9187 58.9019C83.4403 57.8971 83.1054 56.7966 82.9619 55.696C82.914 55.7917 82.8662 55.8396 82.7705 55.9353C83.2489 55.9831 83.6795 56.1267 84.0623 56.4138C84.2537 56.5573 84.4929 56.3181 84.3015 56.1745C83.8231 55.7917 83.3446 55.6003 82.7705 55.5525C82.6269 55.5525 82.5791 55.696 82.5791 55.7917C82.7705 56.9401 83.1054 58.0406 83.5838 59.0933C83.7274 59.2847 84.0144 59.0933 83.9187 58.9019Z" fill="#202124"></path><path d="M85.3548 57.3707C91.2397 64.4524 97.3159 71.3904 103.631 78.0893C103.775 78.2807 104.062 77.9936 103.871 77.85C97.603 71.1033 91.4789 64.2131 85.594 57.1315C85.4505 56.9401 85.2113 57.2272 85.3548 57.3707Z" fill="#202124"></path><path d="M102.674 80.6731C102.913 80.6731 103.152 80.6731 103.392 80.721C103.487 80.7688 103.583 80.8167 103.726 80.7688C103.966 80.6731 104.157 80.2903 104.253 80.099C104.492 79.5248 104.492 78.9506 104.205 78.3764C104.109 78.185 103.774 78.3764 103.918 78.5678C104.253 79.2377 104.109 80.0033 103.583 80.4817C103.631 80.4817 103.679 80.4339 103.774 80.4339C103.439 80.3382 103.104 80.2903 102.77 80.3382C102.435 80.3382 102.435 80.6731 102.674 80.6731Z" fill="#202124"></path><path d="M92.6268 62.0121C93.6794 63.6868 94.3014 65.5529 94.5406 67.5147C94.5884 67.754 94.9233 67.754 94.9233 67.5147C94.6841 65.4572 94.0143 63.5911 92.9617 61.8207C92.8182 61.6293 92.4833 61.8207 92.6268 62.0121Z" fill="#202124"></path><path d="M93.4884 62.2991C94.7802 64.548 95.6414 66.9883 96.072 69.5722C96.1198 69.8114 96.4547 69.7157 96.4069 69.4765C95.9763 66.8448 95.1151 64.4045 93.7754 62.1556C93.6798 61.9163 93.3448 62.1077 93.4884 62.2991Z" fill="#202124"></path><path d="M95.1627 63.5911C96.3588 65.4572 97.0765 67.4669 97.3635 69.6679C97.4114 69.9072 97.7463 69.9072 97.7463 69.6679C97.4592 67.419 96.7416 65.3137 95.4976 63.4476C95.3541 63.2083 95.067 63.3997 95.1627 63.5911Z" fill="#202124"></path><path d="M96.8367 64.8352C97.7457 67.2276 98.272 69.6679 98.3677 72.2039C98.3677 72.4431 98.7505 72.4431 98.7505 72.2039C98.6548 69.62 98.1763 67.1319 97.2194 64.7395C97.1238 64.5481 96.7888 64.6438 96.8367 64.8352Z" fill="#202124"></path><path d="M44.0156 65.9827C44.5418 65.7434 45.2595 65.3128 46.0729 64.7865C46.9819 64.1644 47.7953 63.5902 48.5608 62.6811C49.3263 61.7241 50.0439 60.8629 49.9961 59.6666C49.9004 58.0876 48.5129 57.0828 48.3694 56.9871C47.0776 56.1258 45.5944 56.3651 44.2069 56.6043C42.9151 56.8436 40.5229 57.4656 37.9393 59.6188C37.3652 59.236 36.0734 58.4704 34.3031 58.4704C31.1933 58.5183 29.2795 60.9586 28.9924 61.3414C28.6575 61.772 27.5092 63.3032 27.5571 65.0736C27.5571 65.3128 27.6049 65.552 27.6049 65.9827C27.6049 65.9827 27.6049 67.4182 27.1265 68.6622C26.648 70.0498 25.5955 70.7197 24.5907 71.6767C22.6291 73.495 21.5765 75.4089 20.7153 77.0358C20.1412 78.0884 19.0886 80.1459 18.658 82.969C18.4188 84.548 18.0361 87.5147 19.4714 90.8641C21.0024 94.5006 23.7774 96.3667 24.5907 96.893C28.0834 99.0941 31.4803 98.9984 32.6286 98.9505C35.7863 98.807 38.035 97.6108 39.0397 97.0844C42.0539 95.4576 43.7285 93.3044 44.6854 92.0603C45.4987 90.9598 47.5082 88.2324 48.3215 84.1174C49.0392 80.2416 48.2737 77.275 47.6039 74.4519C47.0297 72.4423 46.025 69.38 44.0156 65.9827Z" fill="#202124"></path><path d="M37.9395 59.6196C38.4657 59.7153 39.5662 60.0503 40.5709 60.9594C41.3364 61.6771 41.767 62.4906 41.9105 62.9691C41.9584 62.7777 42.2454 61.5814 41.5278 60.5766C40.8101 59.4761 39.3269 59.0933 37.9395 59.6196Z" fill="white"></path><path d="M47.6518 64.1174C47.8432 64.4524 48.1302 64.9787 48.3695 65.6007C48.7522 66.6534 49.135 67.6104 48.9436 68.7588C48.7522 69.8114 48.2259 70.577 47.9389 70.912C47.5083 71.4383 47.0298 71.7254 46.7428 71.9168C46.4078 70.8641 45.9772 69.6679 45.3553 68.4238C44.9247 67.5147 44.4462 66.7013 44.0156 65.9357C45.2117 65.3615 46.4557 64.7395 47.6518 64.1174Z" fill="white"></path><path d="M33.9208 58.6627C31.72 57.6578 28.945 60.6245 27.9881 62.3949C27.2705 63.7346 27.414 64.9308 27.414 66.3663C27.414 69.1894 24.7347 71.0077 23.108 73.0173C18.4193 78.807 16.027 87.5155 20.955 93.9272C25.3567 99.6212 33.2989 100.53 39.3751 97.0852C45.9776 93.353 48.944 85.5058 48.322 78.185C47.8914 73.4958 46.1212 68.998 43.6332 65.0265C41.5281 61.725 38.7053 58.8062 34.5907 58.6148C34.3514 58.6148 34.3514 58.9497 34.5907 58.9976C39.7579 59.2368 42.8677 63.926 44.9729 68.0889C47.0302 72.156 48.2742 76.7495 48.0349 81.343C47.6043 90.1472 41.2889 98.76 31.8635 98.8557C27.1269 98.9035 22.5339 96.3675 20.2373 92.2047C17.7494 87.7069 18.2757 82.2521 20.5244 77.7543C21.4813 75.8404 22.7253 74.07 24.1127 72.4431C25.1653 71.2469 26.4571 70.1942 27.2226 68.7588C27.9403 67.4668 27.6532 66.5099 27.6532 65.1222C27.7011 63.4475 28.4187 62.1078 29.567 60.9116C30.4282 60.0024 32.342 58.3277 33.7773 58.9497C33.9687 59.0933 34.1601 58.7584 33.9208 58.6627Z" fill="#202124"></path><path d="M37.9873 59.7632C40.0446 58.2799 42.2933 56.8922 44.9248 56.7487C45.8817 56.7009 47.0778 56.6052 47.939 57.0836C49.0872 57.7057 49.7092 59.8589 49.3264 61.0551C48.8002 62.6341 47.317 63.8782 45.9295 64.6916C45.7381 64.7873 45.9295 65.1222 46.1209 64.9787C48.226 63.6868 52.0057 59.7153 49.1829 57.3229C45.8817 54.5477 40.6188 57.4664 37.796 59.4761C37.6524 59.5718 37.8438 59.9067 37.9873 59.7632Z" fill="#202124"></path><path d="M47.5088 64.2131C48.1786 65.3614 48.7049 66.7012 48.7528 68.0888C48.8485 69.8114 47.9394 70.864 46.5998 71.821C46.4084 71.9646 46.5998 72.2517 46.7912 72.1081C47.8437 71.3425 48.8485 70.4334 49.0877 69.0936C49.3748 67.3711 48.6571 65.505 47.7959 64.0217C47.7002 63.8303 47.4131 64.0217 47.5088 64.2131Z" fill="#202124"></path></g><defs><clipPath id="clip0"><rect width="273" height="238" fill="white"></rect></clipPath></defs></svg> 