<svg xmlns="http://www.w3.org/2000/svg" width="140" height="140" fill="none"><path fill="#5492ED" d="M104.323 133.324H34.617a3.5 3.5 0 0 1-3.5-3.5V52.573a3.5 3.5 0 0 1 7 0v73.751h62.706V62.653a3.5 3.5 0 0 1 7 0v67.171a3.5 3.5 0 0 1-3.5 3.5Z"/><path fill="#44C7F4" d="M104.323 40.647a3.5 3.5 0 0 0-3.5 3.5v7.804a3.5 3.5 0 0 0 7 0v-7.804a3.5 3.5 0 0 0-3.5-3.5ZM104.323 26.597a3.5 3.5 0 0 0-3.5 3.5v3.324a3.5 3.5 0 1 0 7 0v-3.324a3.5 3.5 0 0 0-3.5-3.5ZM104.323 16.433a3.5 3.5 0 0 0-3.5 3.5v1.644a3.5 3.5 0 0 0 7 0v-1.644a3.5 3.5 0 0 0-3.5-3.5ZM104.323 4.44a3.5 3.5 0 0 0-3.5 3.5v.037a3.5 3.5 0 0 0 7 0V7.94a3.5 3.5 0 0 0-3.5-3.5ZM82.034 40.647a3.5 3.5 0 0 0-3.5 3.5v5.004a3.5 3.5 0 0 0 7 0v-5.004a3.5 3.5 0 0 0-3.5-3.5ZM82.034 29.397a3.5 3.5 0 0 0-3.5 3.5v1.644a3.5 3.5 0 0 0 7 0v-1.644a3.5 3.5 0 0 0-3.5-3.5ZM82.034 19.233a3.5 3.5 0 0 0-3.5 3.5v1.364a3.5 3.5 0 0 0 7 0v-1.364a3.5 3.5 0 0 0-3.5-3.5ZM82.034 10.04a3.5 3.5 0 0 0-3.5 3.5v.037a3.5 3.5 0 0 0 7 0v-.036a3.5 3.5 0 0 0-3.5-3.5ZM58.483 48.487a3.5 3.5 0 0 0-3.5 3.5v4.164a3.5 3.5 0 1 0 7 0v-4.164a3.5 3.5 0 0 0-3.5-3.5ZM58.483 37.237a3.5 3.5 0 0 0-3.5 3.5v1.644a3.5 3.5 0 0 0 7 0v-1.644a3.5 3.5 0 0 0-3.5-3.5ZM58.483 25.393a3.5 3.5 0 0 0-3.5 3.5v1.364a3.5 3.5 0 0 0 7 0v-1.364a3.5 3.5 0 0 0-3.5-3.5ZM58.483 15.08a3.5 3.5 0 0 0-3.5 3.5v.037a3.5 3.5 0 0 0 7 0v-.036a3.5 3.5 0 0 0-3.5-3.5ZM34.617 32.247a3.5 3.5 0 0 0-3.5 3.5v4.164a3.5 3.5 0 1 0 7 0v-4.164a3.5 3.5 0 0 0-3.5-3.5ZM34.617 18.757a3.5 3.5 0 0 0-3.5 3.5v1.924a3.5 3.5 0 0 0 7 0v-1.924a3.5 3.5 0 0 0-3.5-3.5ZM34.617 4.16a3.5 3.5 0 0 0-3.5 3.5v.037a3.5 3.5 0 0 0 7 0V7.66a3.5 3.5 0 0 0-3.5-3.5Z"/><path fill="#0065AD" d="M87.156 81.793H51.372a3.5 3.5 0 0 1 0-7h35.784a3.5 3.5 0 1 1 0 7ZM87.156 95.953H51.372a3.5 3.5 0 1 1 0-7h35.784a3.5 3.5 0 0 1 0 7ZM70.356 110.113H51.372a3.5 3.5 0 1 1 0-7h18.984a3.5 3.5 0 1 1 0 7Z"/></svg>