<svg xmlns="http://www.w3.org/2000/svg" width="140" height="140" fill="none"><path fill="#0065AD" d="M106.723 78.13H73.082V62.883a3.5 3.5 0 0 0-7 0v15.249H31.825c-8.013 0-14.531 6.519-14.531 14.53V97.8a3.5 3.5 0 0 0 7 0v-5.138c0-4.153 3.378-7.531 7.53-7.531h34.258V99.2a3.5 3.5 0 1 0 7 0V85.13h33.641c4.153 0 7.531 3.38 7.531 7.532v5.163a3.5 3.5 0 0 0 7 0v-5.163c0-8.012-6.518-14.531-14.531-14.531Z"/><path fill="#5492ED" d="M40.228 132.121c-3.477-2.874-8.896-4.414-11.064-4.942-.39-.096-1.077-.315-1.288-.714-.155-.291-.148-.73-.09-1.11 4.09-3.233 5.684-9.672 5.684-15.817 0-6.472-5.41-11.738-12.06-11.738-6.651 0-12.062 5.266-12.062 11.738 0 6.185 1.614 12.669 5.765 15.881.048.214.065.44.007.562-.074.159-.473.497-1.496.758-2.92.747-8.266 2.516-11.253 5.975a2.8 2.8 0 1 0 4.237 3.66c1.43-1.656 4.572-3.23 8.403-4.209 3.256-.832 4.642-2.59 5.23-3.918.12-.27.21-.538.284-.805.288.021.583.034.885.034.312 0 .616-.014.915-.037.115.519.295 1.048.562 1.57.642 1.253 2.022 2.896 4.95 3.61 3.734.91 7.032 2.338 8.823 3.819a2.79 2.79 0 0 0 1.783.641 2.8 2.8 0 0 0 1.785-4.958Zm-23.86-14.237c-1.281-3.083-1.42-6.863-1.42-8.346 0-3.384 2.899-6.138 6.462-6.138 3.562 0 6.46 2.753 6.46 6.138 0 1.483-.138 5.263-1.42 8.346-1.486 3.578-3.588 3.992-5.04 3.992-1.453 0-3.555-.414-5.043-3.992ZM88.4 132.121c-3.477-2.874-8.895-4.414-11.064-4.942-.39-.096-1.077-.315-1.288-.714-.154-.291-.147-.73-.09-1.11 4.09-3.234 5.684-9.672 5.684-15.817 0-6.472-5.41-11.738-12.06-11.738s-12.061 5.266-12.061 11.738c0 6.185 1.614 12.669 5.764 15.881.048.214.065.44.008.563-.075.158-.474.496-1.496.757-2.92.747-8.266 2.515-11.254 5.974a2.8 2.8 0 0 0 4.238 3.661c1.43-1.656 4.572-3.23 8.403-4.209 3.255-.832 4.64-2.59 5.23-3.918.12-.27.209-.539.283-.805.289.021.583.034.885.034.312 0 .616-.015.915-.037.116.519.295 1.048.563 1.57.641 1.253 2.021 2.896 4.95 3.61 3.733.91 7.031 2.338 8.823 3.818a2.786 2.786 0 0 0 1.782.642 2.8 2.8 0 0 0 1.785-4.958Zm-23.86-14.237c-1.28-3.083-1.42-6.863-1.42-8.346 0-3.384 2.9-6.138 6.462-6.138s6.46 2.753 6.46 6.138c0 1.483-.138 5.263-1.419 8.346-1.487 3.578-3.59 3.992-5.041 3.992-1.453 0-3.555-.414-5.042-3.992ZM136.573 132.121c-3.477-2.874-8.896-4.414-11.064-4.942-.391-.096-1.077-.315-1.289-.714-.154-.291-.147-.73-.09-1.11 4.091-3.234 5.685-9.672 5.685-15.817 0-6.472-5.411-11.738-12.061-11.738-6.651 0-12.061 5.266-12.061 11.738 0 6.185 1.614 12.67 5.765 15.882.047.213.064.439.007.561-.074.159-.473.497-1.496.758-2.921.747-8.266 2.516-11.254 5.975a2.8 2.8 0 1 0 4.238 3.66c1.431-1.656 4.572-3.23 8.403-4.209 3.255-.832 4.641-2.59 5.23-3.918.12-.27.209-.538.283-.805.289.021.583.034.885.034.313 0 .617-.014.916-.037.115.519.295 1.048.562 1.57.641 1.253 2.021 2.896 4.95 3.61 3.734.91 7.032 2.338 8.823 3.819a2.79 2.79 0 0 0 1.782.641 2.8 2.8 0 0 0 1.786-4.958Zm-23.861-14.237c-1.281-3.083-1.419-6.863-1.419-8.346 0-3.384 2.898-6.138 6.461-6.138 3.562 0 6.461 2.753 6.461 6.138 0 1.483-.138 5.263-1.419 8.346-1.488 3.578-3.59 3.992-5.042 3.992s-3.555-.414-5.042-3.992Z"/><path fill="#50A0F9" d="M106.721 65.262h-73.68a6.868 6.868 0 0 1-6.86-6.86V8.866a6.868 6.868 0 0 1 6.86-6.86h73.68a6.868 6.868 0 0 1 6.86 6.86v49.536a6.868 6.868 0 0 1-6.86 6.86Zm-73.54-7h73.4V9.006h-73.4v49.256Z"/><path fill="#44C7F4" d="M92.402 37.134H47.36a3.5 3.5 0 0 1 0-7H92.4a3.5 3.5 0 0 1 0 7ZM92.402 23.135h-45.04a3.5 3.5 0 0 1 0-7h45.04a3.5 3.5 0 0 1 0 7ZM69.88 51.134H47.36a3.5 3.5 0 0 1 0-7h22.52a3.5 3.5 0 0 1 0 7Z"/></svg>