<svg xmlns="http://www.w3.org/2000/svg" width="143" height="116" fill="none"><g fill="#fff" clip-path="url(#a)"><path d="m96.408 25.653 8.507 4.614V57.08l-8.507-4.615V25.653ZM84.743 9.192l8.507 4.615v45.2l-8.507-4.615v-45.2ZM61.411 0l8.507 4.615v58.253l-8.507-4.615V0ZM73.076 21.791l8.507 4.615v34.531l-8.507-4.615v-34.53ZM38.078 37.686l8.507 4.615v24.425l-8.507-4.615V37.686ZM49.743 18.845l8.507 4.614v41.336l-8.507-4.612V18.845ZM.827 90.179c0-.837.157-1.616.472-2.336a5.413 5.413 0 0 1 1.379-1.885c.6-.534 1.33-.95 2.194-1.253.867-.309 1.848-.46 2.94-.46.959 0 1.84.097 2.644.291a8.436 8.436 0 0 1 2.23.88l-1.1 1.799a4.208 4.208 0 0 0-.71-.36 6.15 6.15 0 0 0-.858-.266 8.985 8.985 0 0 0-.941-.168 7.921 7.921 0 0 0-.961-.063c-.764 0-1.445.094-2.043.283-.595.188-1.101.451-1.51.788-.41.337-.718.74-.93 1.208a3.66 3.66 0 0 0-.323 1.542c0 .58.112 1.114.335 1.6.22.485.54.902.96 1.253.418.354.93.63 1.534.825.606.197 1.293.297 2.057.297a7.22 7.22 0 0 0 2.02-.283 7.424 7.424 0 0 0 1.753-.716l1.095 1.802a8.095 8.095 0 0 1-2.225.962c-.844.231-1.74.348-2.69.348-1.209 0-2.27-.154-3.186-.465-.912-.314-1.673-.746-2.288-1.291a5.277 5.277 0 0 1-1.382-1.936 6.147 6.147 0 0 1-.466-2.396Zm14.68 1.48c0-.6.123-1.177.369-1.726.246-.545.6-1.028 1.064-1.45.46-.42 1.024-.754 1.696-1.005.673-.252 1.434-.38 2.289-.38.846 0 1.61.125 2.294.38.678.25 1.256.6 1.733 1.039.472.44.835.957 1.09 1.55.255.598.38 1.237.38 1.917a9.03 9.03 0 0 1-.02.537h-8.41c.098.265.25.51.464.73.212.22.48.409.801.569.323.16.695.283 1.116.368.42.089.886.135 1.398.135.515 0 1.024-.055 1.534-.16.503-.109.986-.246 1.45-.409l.755 1.697a9.687 9.687 0 0 1-.884.354c-.3.102-.612.188-.935.257-.326.068-.664.12-1.018.154-.352.034-.724.051-1.116.051-1.001 0-1.88-.12-2.632-.36-.75-.24-1.378-.565-1.888-.982-.506-.414-.89-.9-1.147-1.46a4.291 4.291 0 0 1-.383-1.807Zm2.486-.866h6.061a2.119 2.119 0 0 0-.375-.685 2.503 2.503 0 0 0-.626-.554 3.052 3.052 0 0 0-.875-.374 4.188 4.188 0 0 0-1.09-.135c-.42 0-.807.049-1.153.143-.346.091-.652.22-.915.38-.26.16-.478.345-.647.557-.174.211-.3.43-.38.668Zm11.336 5.32v-8.855h2.225v1.276a9.697 9.697 0 0 1 1.562-.942 8.662 8.662 0 0 1 1.63-.608l.658 2.033c-.86.085-1.613.277-2.262.574a4.04 4.04 0 0 0-1.588 1.253v5.27H29.33Zm7.826-4.455c0-.6.123-1.176.369-1.725.246-.545.6-1.028 1.058-1.45.464-.42 1.03-.754 1.702-1.005.67-.252 1.43-.38 2.283-.38.85 0 1.613.125 2.294.38.68.25 1.259.6 1.733 1.039.478.44.841.957 1.096 1.55.255.598.38 1.237.38 1.917 0 .085-.002.177-.005.271a3.18 3.18 0 0 1-.02.266h-8.401c.091.265.246.51.463.73.212.22.48.409.8.569.318.16.69.283 1.11.368.421.089.89.135 1.405.135.512 0 1.019-.055 1.528-.16.506-.109.992-.246 1.456-.409l.75 1.697a9.073 9.073 0 0 1-.885.354c-.297.102-.609.188-.93.257-.325.068-.663.12-1.018.154-.352.034-.726.051-1.121.051-.998 0-1.874-.12-2.626-.36-.755-.24-1.382-.565-1.888-.982-.506-.414-.89-.9-1.147-1.46a4.293 4.293 0 0 1-.386-1.807Zm2.489-.865h6.06a2.236 2.236 0 0 0-.374-.685 2.506 2.506 0 0 0-.626-.554 3.052 3.052 0 0 0-.876-.374 4.22 4.22 0 0 0-1.09-.135c-.42 0-.806.049-1.155.143-.346.091-.65.22-.91.38s-.477.345-.646.557a2.002 2.002 0 0 0-.383.668Zm11.273 5.32v-12.45h2.225v4.428c.197-.137.43-.265.695-.385a7.027 7.027 0 0 1 1.808-.528 5.94 5.94 0 0 1 .975-.083c.756 0 1.448.111 2.077.334.63.22 1.17.528 1.62.928.451.403.806.883 1.057 1.44.255.556.38 1.173.38 1.847 0 .705-.13 1.342-.394 1.91a4.316 4.316 0 0 1-1.104 1.454 4.978 4.978 0 0 1-1.67.93 6.613 6.613 0 0 1-2.097.324c-.323 0-.64-.02-.956-.058a7.968 7.968 0 0 1-.9-.168 5.665 5.665 0 0 1-.813-.251 4.413 4.413 0 0 1-.678-.317v.64h-2.225v.005Zm2.225-5.854v3.067c.226.18.466.334.72.46.25.123.507.225.767.308a5.574 5.574 0 0 0 1.568.231c.512 0 .967-.068 1.367-.205.398-.14.733-.329 1.007-.569.275-.24.484-.52.627-.845a2.54 2.54 0 0 0 .22-1.06 2.43 2.43 0 0 0-.832-1.836 2.988 2.988 0 0 0-.973-.562 3.76 3.76 0 0 0-1.282-.206 4.86 4.86 0 0 0-.9.086c-.3.054-.593.134-.87.24a4.46 4.46 0 0 0-.787.386c-.237.154-.449.322-.632.505Zm11.199 5.854v-8.855h2.225v1.276a9.672 9.672 0 0 1 1.56-.942 8.786 8.786 0 0 1 1.635-.608l.658 2.033c-.86.085-1.616.277-2.268.574a4.093 4.093 0 0 0-1.585 1.253v5.27h-2.225Zm7.823-2.79c0-.425.092-.814.278-1.162.186-.351.463-.654.838-.905.369-.252.832-.449 1.387-.583.555-.137 1.201-.206 1.94-.206.549 0 1.124.04 1.727.118.607.08 1.23.202 1.87.368a1.791 1.791 0 0 0-.25-.78 2.098 2.098 0 0 0-.607-.614 3.187 3.187 0 0 0-.936-.4 4.939 4.939 0 0 0-1.238-.142c-.25 0-.526.014-.827.045-.3.029-.612.072-.935.135a12.42 12.42 0 0 0-.95.225c-.315.089-.61.197-.878.323l-.678-1.822c.34-.12.7-.228 1.084-.328a15.654 15.654 0 0 1 2.383-.428c.4-.04.79-.064 1.167-.064 1.662 0 2.898.423 3.707 1.271.81.843 1.213 2.14 1.213 3.887v3.855h-2.231v-.834a6.568 6.568 0 0 1-1.65.697 7.474 7.474 0 0 1-1.033.214c-.37.051-.761.077-1.173.077-.692 0-1.302-.074-1.825-.225-.524-.146-.964-.355-1.316-.62a2.704 2.704 0 0 1-.792-.937 2.517 2.517 0 0 1-.275-1.165Zm2.351-.077c0 .146.038.285.115.414a.995.995 0 0 0 .36.354c.169.103.38.186.638.251.258.063.57.092.936.092a5.95 5.95 0 0 0 1.14-.109 5.964 5.964 0 0 0 1.882-.671c.256-.151.467-.305.639-.465v-.389a12.35 12.35 0 0 0-1.013-.24 14.43 14.43 0 0 0-1.814-.237c-.265-.014-.503-.02-.703-.02-.415 0-.76.03-1.038.083a2.447 2.447 0 0 0-.67.22.904.904 0 0 0-.366.329.77.77 0 0 0-.106.388Zm11.454 2.867v-12.45h2.23v12.45h-2.23Zm5.875 0V84.385h10.026v2.084h-7.635v2.342h6.76v1.962h-6.76v3.261h7.795v2.08H91.844Zm12.386-4.39c0-.704.134-1.341.4-1.91.263-.565.63-1.05 1.102-1.453a4.98 4.98 0 0 1 1.67-.931 6.48 6.48 0 0 1 2.097-.328c.323 0 .641.02.955.062.312.04.612.095.901.163.292.072.564.154.818.252.255.1.478.205.673.322v-4.235h2.225v12.45h-2.225v-.833a4.158 4.158 0 0 1-.696.386c-.266.12-.554.222-.858.31-.306.092-.62.164-.949.215a6.322 6.322 0 0 1-.976.077 6.254 6.254 0 0 1-2.076-.328 4.911 4.911 0 0 1-1.619-.931 4.213 4.213 0 0 1-1.059-1.434 4.403 4.403 0 0 1-.383-1.853Zm2.34 0c0 .355.071.692.214 1.006.143.314.349.591.618.831.272.234.595.423.973.563.38.137.806.205 1.281.205.3 0 .601-.028.901-.085.301-.057.592-.137.875-.24a4.48 4.48 0 0 0 .781-.386c.244-.151.455-.317.638-.502v-3.067a4.043 4.043 0 0 0-.715-.46 5.021 5.021 0 0 0-1.565-.483 5.553 5.553 0 0 0-.775-.057c-.512 0-.964.069-1.361.206a2.948 2.948 0 0 0-1.013.568 2.39 2.39 0 0 0-.626.845 2.444 2.444 0 0 0-.226 1.057Zm12.308 7.766.833-1.874c.28.1.566.183.858.251.292.066.572.12.844.163.274.04.537.072.786.086.255.02.478.031.672.031.593 0 1.11-.071 1.548-.214a3.386 3.386 0 0 0 1.101-.574 2.39 2.39 0 0 0 .658-.84c.143-.316.215-.653.215-1.008v-.38a4.764 4.764 0 0 1-.67.375c-.257.12-.537.225-.843.317-.307.088-.63.16-.976.214a6.81 6.81 0 0 1-1.064.083 5.995 5.995 0 0 1-2.019-.329 4.855 4.855 0 0 1-1.605-.91 4.133 4.133 0 0 1-1.053-1.414 4.346 4.346 0 0 1-.38-1.834c0-.685.131-1.307.394-1.864a4.213 4.213 0 0 1 1.105-1.428 5.001 5.001 0 0 1 1.664-.917 6.591 6.591 0 0 1 2.091-.322 8.452 8.452 0 0 1 1.865.226c.289.07.558.153.813.25.254.1.477.206.672.323v-.64h2.231v7.842c0 .805-.123 1.516-.369 2.136a4.085 4.085 0 0 1-1.078 1.568c-.472.423-1.061.742-1.768.957-.704.22-1.507.328-2.417.328-.326 0-.664-.014-1.018-.04a16.988 16.988 0 0 1-1.053-.117 19.377 19.377 0 0 1-1.05-.188c-.337-.078-.669-.16-.987-.257Zm1.245-7.877c0 .355.071.689.214 1 .143.314.349.588.612.82.266.23.589.414.967.548.378.134.801.2 1.27.2a5.136 5.136 0 0 0 1.791-.331c.28-.106.543-.232.786-.38.244-.152.455-.32.633-.509v-2.912a4.05 4.05 0 0 0-.716-.46 5.473 5.473 0 0 0-.766-.308 5.62 5.62 0 0 0-1.568-.231c-.512 0-.967.065-1.367.199-.398.137-.732.32-1.007.554a2.331 2.331 0 0 0-.626.814c-.152.308-.223.64-.223.996Zm11.135.046c0-.6.123-1.176.366-1.725a4.393 4.393 0 0 1 1.065-1.45c.463-.42 1.026-.754 1.696-1.005.672-.252 1.433-.38 2.288-.38.847 0 1.611.125 2.294.38.678.25 1.256.6 1.734 1.039.472.44.835.957 1.09 1.55.254.598.38 1.237.38 1.917 0 .085-.003.177-.006.271 0 .1-.005.189-.014.266h-8.407c.097.265.249.51.463.73.212.22.481.409.801.569.324.16.695.283 1.116.368.42.089.887.135 1.399.135.515 0 1.024-.055 1.533-.16.506-.109.99-.246 1.45-.409l.755 1.697a9.554 9.554 0 0 1-.884.354 7.714 7.714 0 0 1-.935.257c-.323.068-.661.12-1.018.154-.352.034-.724.051-1.116.051-1.001 0-1.876-.12-2.626-.36-.755-.24-1.384-.565-1.89-.982a4.06 4.06 0 0 1-1.147-1.46 4.24 4.24 0 0 1-.387-1.807Zm2.483-.865h6.062a2.255 2.255 0 0 0-.369-.685 2.438 2.438 0 0 0-.633-.554 3.037 3.037 0 0 0-.875-.374 4.188 4.188 0 0 0-1.09-.135 4.4 4.4 0 0 0-1.153.143 3.37 3.37 0 0 0-.909.38c-.263.16-.481.345-.652.557a1.98 1.98 0 0 0-.381.668ZM1.599 114.218H0v-6.011h1.636c.48 0 .91.114 1.29.34.378.222.672.542.89.962.212.42.317.897.317 1.428v.554c0 .537-.105 1.011-.317 1.428a2.298 2.298 0 0 1-.895.962 2.58 2.58 0 0 1-1.322.337Zm.04-5.58H.495v5.152h1.104c.618 0 1.113-.209 1.485-.629.369-.419.554-.988.554-1.702v-.528c0-.691-.183-1.245-.549-1.659-.366-.42-.85-.631-1.45-.634Zm6.345 5.663a1.853 1.853 0 0 1-1.7-1.063 2.499 2.499 0 0 1-.246-1.125v-.18c0-.431.08-.816.24-1.159.167-.345.393-.617.679-.814.289-.197.6-.297.94-.297.53 0 .948.186 1.256.56.31.371.464.877.464 1.516v.274H6.513v.095c0 .508.14.928.42 1.265.284.34.641.508 1.07.508.258 0 .484-.049.678-.143.198-.1.378-.254.541-.465l.298.237c-.352.528-.864.791-1.536.791Zm-.086-4.212c-.364 0-.67.137-.916.408-.246.274-.397.643-.452 1.099h2.606v-.054c-.014-.431-.131-.779-.354-1.048a1.095 1.095 0 0 0-.884-.405Zm5.36 4.212a1.857 1.857 0 0 1-1.696-1.063 2.5 2.5 0 0 1-.246-1.125v-.18c0-.431.08-.816.24-1.159.16-.345.386-.617.673-.814.291-.197.603-.297.94-.297.53 0 .947.186 1.256.56.312.371.47.877.47 1.516v.274h-3.101v.095c0 .508.14.928.42 1.265.28.34.635.508 1.064.508.258 0 .486-.049.684-.143.194-.1.375-.254.535-.465l.303.237c-.352.528-.867.791-1.542.791Zm-.086-4.212c-.36 0-.663.137-.91.408-.248.274-.4.643-.451 1.099h2.606v-.054c-.015-.431-.135-.779-.36-1.048a1.087 1.087 0 0 0-.885-.405Zm7.177 1.87v.069c0 .696-.148 1.25-.446 1.659-.3.408-.704.614-1.207.614-.592 0-1.047-.214-1.362-.646v2.279h-.477v-6.188h.446l.02.634c.315-.48.77-.72 1.361-.72.521 0 .93.203 1.225.609.292.408.44.971.44 1.69Zm-.477-.017c0-.571-.115-1.022-.344-1.354-.226-.328-.543-.491-.952-.491-.295 0-.55.072-.761.217a1.43 1.43 0 0 0-.484.634v2.148c.115.257.278.454.495.588.212.134.467.2.761.2.404 0 .721-.166.947-.497.223-.331.338-.814.338-1.445Zm6.318-3.738v6.011h-.497v-6.011h.497Zm2.497 1.545h.458l.015.768c.165-.28.369-.491.612-.634.243-.146.512-.217.806-.217.466 0 .816.137 1.044.408.226.272.34.677.344 1.217v2.93h-.478v-2.936c-.003-.397-.086-.697-.246-.894-.166-.194-.423-.291-.775-.291-.298 0-.564.094-.793.286-.228.191-.4.448-.509.771v3.061h-.477v-4.469Zm8.15 3.335a.712.712 0 0 0-.283-.591c-.192-.148-.48-.265-.87-.348-.383-.086-.68-.183-.895-.292a1.218 1.218 0 0 1-.478-.396 1.03 1.03 0 0 1-.154-.572c0-.351.143-.642.432-.873.283-.232.652-.349 1.1-.349.484 0 .873.123 1.168.371.292.246.438.569.438.969h-.478c0-.26-.106-.48-.318-.657-.214-.172-.486-.26-.806-.26-.315 0-.57.071-.761.217a.68.68 0 0 0-.289.565c0 .223.08.394.24.517.158.123.447.237.87.34.42.1.738.206.947.323.211.117.369.257.469.417.103.162.154.359.154.591 0 .377-.148.679-.443.905-.298.226-.687.34-1.162.34-.503 0-.912-.126-1.23-.374-.314-.254-.471-.574-.471-.957h.483a.842.842 0 0 0 .355.671c.22.163.506.243.864.243.334 0 .606-.077.812-.229.203-.151.306-.339.306-.571Zm3.13-3.335v4.469h-.484v-4.469h.483Zm-.564-1.291a.33.33 0 0 1 .089-.237c.057-.066.14-.1.24-.1.103 0 .183.034.24.1a.32.32 0 0 1 .092.237.322.322 0 0 1-.092.231.312.312 0 0 1-.24.095.308.308 0 0 1-.24-.095.32.32 0 0 1-.09-.231Zm2.703 3.55v-.063c0-.703.151-1.257.452-1.665.3-.408.712-.614 1.23-.614.592 0 1.041.243 1.347.731l.026-.645h.452v4.377c0 .574-.157 1.031-.472 1.371-.312.334-.735.503-1.27.503a1.92 1.92 0 0 1-.87-.206 1.705 1.705 0 0 1-.646-.554l.266-.303c.343.432.746.646 1.213.646.403 0 .718-.123.94-.366.227-.242.344-.582.35-1.016v-.56c-.31.44-.758.66-1.348.66-.5 0-.904-.206-1.212-.62-.306-.414-.458-.971-.458-1.676Zm.49.02c0 .571.11 1.019.334 1.348.223.331.538.496.94.496.59 0 1.008-.274 1.257-.819v-2.079a1.453 1.453 0 0 0-.484-.657 1.309 1.309 0 0 0-.766-.223 1.08 1.08 0 0 0-.942.486c-.228.331-.34.814-.34 1.448Zm5.772-4.155v2.633c.157-.269.36-.474.606-.62.246-.149.515-.223.807-.223.466 0 .815.137 1.044.409.226.271.34.676.343 1.216v2.93h-.478v-2.936c-.003-.397-.086-.696-.246-.893-.16-.195-.42-.292-.775-.292-.297 0-.563.095-.792.286-.23.191-.4.448-.51.771v3.061h-.477v-6.345h.477v.003Zm5.331.734h.484v1.142h.9v.408h-.9v2.979c0 .245.043.431.129.554.088.12.234.18.437.18.08 0 .209-.015.392-.043l.02.408a1.546 1.546 0 0 1-.515.069c-.329 0-.569-.1-.72-.297-.152-.197-.227-.486-.227-.868v-2.982h-.798v-.408h.798v-1.142Zm6.01 4.477a.71.71 0 0 0-.289-.591c-.191-.148-.48-.265-.864-.348-.386-.086-.686-.183-.9-.292a1.219 1.219 0 0 1-.473-.396 1.03 1.03 0 0 1-.154-.572c0-.351.143-.642.426-.873.29-.232.655-.349 1.101-.349.487 0 .876.123 1.168.371.294.246.443.569.443.969h-.484c0-.26-.105-.48-.317-.657-.212-.172-.48-.26-.807-.26-.314 0-.569.071-.76.217a.68.68 0 0 0-.29.565c0 .223.08.394.24.517.158.123.447.237.87.34.427.1.741.206.953.323.209.117.366.257.469.417.103.162.155.359.155.591 0 .377-.15.679-.447.905-.294.226-.68.34-1.155.34-.507 0-.919-.126-1.233-.374-.312-.254-.47-.574-.47-.957h.478c.02.288.14.514.355.671.22.163.51.243.87.243.334 0 .606-.077.812-.229.2-.151.303-.339.303-.571Zm2.489 2.259-.283-.217c.243-.334.369-.682.374-1.042v-.64h.472v.514c.003.574-.186 1.037-.563 1.385Zm7.823-3.575h-1.484v2.447h-.495v-6.011h1.99c.61 0 1.09.16 1.44.483.351.317.529.756.529 1.316 0 .565-.17 1-.51 1.305-.334.308-.823.46-1.47.46Zm-1.484-3.13v2.701h1.496c.48 0 .846-.117 1.1-.354.25-.231.376-.559.376-.979 0-.417-.126-.748-.375-.994-.249-.245-.604-.371-1.064-.374h-1.533Zm5.166 3.378v-.1c0-.431.082-.816.245-1.159.16-.346.39-.614.684-.803a1.807 1.807 0 0 1 1.007-.291c.578 0 1.047.209 1.405.628.36.417.54.969.54 1.657v.105c0 .434-.08.823-.24 1.168-.16.346-.39.611-.684.8-.294.186-.629.28-1.007.28-.575 0-1.044-.209-1.404-.626-.363-.417-.546-.971-.546-1.659Zm.483-.051v.088c0 .537.134.974.406 1.317.266.343.62.514 1.058.514.432 0 .784-.171 1.053-.514.266-.343.4-.794.4-1.359v-.095c0-.342-.062-.654-.185-.936a1.497 1.497 0 0 0-.52-.66 1.29 1.29 0 0 0-.762-.231c-.429 0-.778.171-1.05.517-.263.345-.4.799-.4 1.359Zm5.543-2.216.916 3.444.077.385.092-.408 1.044-3.421h.412l1.032 3.39.115.476.091-.434.89-3.432h.498l-1.265 4.469h-.412l-1.115-3.544-.052-.243-.051.249-1.102 3.538h-.406l-1.264-4.469h.5Zm8.79 4.552a1.853 1.853 0 0 1-1.698-1.063 2.5 2.5 0 0 1-.246-1.125v-.18c0-.431.08-.816.24-1.159.16-.345.386-.617.678-.814.289-.197.6-.297.94-.297.524 0 .945.186 1.257.56.309.371.463.877.463 1.516v.274h-3.1v.095c0 .508.14.928.42 1.265.283.34.64.508 1.07.508.257 0 .483-.049.677-.143.195-.1.375-.254.535-.465l.304.237c-.355.528-.867.791-1.54.791Zm-.085-4.212c-.363 0-.67.137-.915.408-.246.274-.398.643-.452 1.099h2.606v-.054c-.015-.431-.135-.779-.36-1.048a1.08 1.08 0 0 0-.88-.405Zm5.7-.366-.01.449a1.713 1.713 0 0 0-.33-.032 1.15 1.15 0 0 0-.76.26c-.206.171-.352.423-.444.751v3.067h-.478v-4.469h.47l.011.708c.255-.528.66-.794 1.224-.794.132 0 .238.02.318.06Zm2.601 4.495h-.484v-4.061h-.715v-.408h.715v-.54c0-.457.115-.808.34-1.054.227-.245.542-.371.948-.371.186 0 .357.023.515.069l-.038.411a1.956 1.956 0 0 0-.443-.049c-.263 0-.469.086-.618.255-.148.168-.22.408-.22.719v.554h1.038v.409h-1.038v4.066Zm5.729 0-.005-.565c-.292.434-.755.651-1.388.651-.463 0-.815-.14-1.052-.417-.243-.274-.366-.683-.37-1.228v-2.907h.478v2.844c0 .854.335 1.279 1.002 1.279.695 0 1.135-.297 1.321-.888v-3.235h.484v4.469h-.47v-.003Zm3.284-6.345v6.345h-.483v-6.345h.483Zm9.071 6.345-1.413-2.502h-1.697v2.502h-.497v-6.011h1.902c.624 0 1.11.154 1.459.465.349.312.523.746.523 1.305 0 .386-.108.726-.329 1.02-.22.297-.515.5-.884.614l1.465 2.553v.054h-.529Zm-3.112-5.58v2.644h1.51c.418 0 .752-.122 1.001-.365.249-.243.375-.557.375-.943 0-.422-.132-.753-.392-.988-.263-.231-.632-.348-1.104-.348h-1.39Zm7.331 5.663a1.855 1.855 0 0 1-1.696-1.063 2.498 2.498 0 0 1-.246-1.125v-.18c0-.431.08-.816.24-1.159.16-.345.386-.617.672-.814.292-.197.604-.297.941-.297.529 0 .947.186 1.256.56.312.371.469.877.469 1.516v.274h-3.101v.095c0 .508.141.928.421 1.265.28.34.635.508 1.064.508.257 0 .486-.049.684-.143.194-.1.374-.254.535-.465l.303.237c-.352.528-.867.791-1.542.791Zm-.086-4.212c-.36 0-.663.137-.909.408-.249.274-.401.643-.452 1.099h2.605v-.054c-.014-.431-.134-.779-.36-1.048a1.087 1.087 0 0 0-.884-.405Zm6.287 2.995a.71.71 0 0 0-.288-.591c-.192-.148-.481-.265-.864-.348-.387-.086-.687-.183-.901-.292a1.216 1.216 0 0 1-.472-.396 1.03 1.03 0 0 1-.155-.572c0-.351.143-.642.426-.873.289-.232.655-.349 1.102-.349.486 0 .875.123 1.167.371.294.246.443.569.443.969h-.483c0-.26-.106-.48-.318-.657-.212-.172-.48-.26-.806-.26-.315 0-.57.071-.761.217a.683.683 0 0 0-.284.565.62.62 0 0 0 .238.517c.16.123.452.237.875.34.421.1.738.206.947.323.209.117.366.257.469.417.103.162.155.359.155.591 0 .377-.149.679-.447.905-.294.226-.68.34-1.155.34-.507 0-.919-.126-1.233-.374-.312-.254-.469-.574-.469-.957h.477c.02.288.141.514.361.671.214.163.503.243.864.243.334 0 .606-.077.812-.229.197-.151.3-.339.3-.571Zm5.392 1.134-.005-.565c-.292.434-.756.651-1.388.651-.463 0-.815-.14-1.052-.417-.243-.274-.366-.683-.369-1.228v-2.907h.477v2.844c0 .854.335 1.279 1.002 1.279.695 0 1.135-.297 1.321-.888v-3.235h.483v4.469h-.469v-.003Zm3.281-6.345v6.345h-.477v-6.345h.477Zm2.6.734h.484v1.142h.901v.408h-.901v2.979c0 .245.043.431.129.554.085.12.231.18.437.18a3 3 0 0 0 .392-.043l.014.408a1.518 1.518 0 0 1-.514.069c-.329 0-.567-.1-.716-.297-.151-.197-.226-.486-.226-.868v-2.982h-.8v-.408h.8v-1.142Zm6.01 4.477a.708.708 0 0 0-.289-.591c-.191-.148-.48-.265-.869-.348-.383-.086-.681-.183-.895-.292a1.216 1.216 0 0 1-.472-.396 1.03 1.03 0 0 1-.155-.572c0-.351.143-.642.426-.873.289-.232.655-.349 1.102-.349.486 0 .875.123 1.167.371.294.246.443.569.443.969h-.483c0-.26-.106-.48-.318-.657-.212-.172-.481-.26-.807-.26-.314 0-.569.071-.76.217a.68.68 0 0 0-.289.565c0 .223.08.394.24.517.157.123.446.237.869.34.421.1.738.206.953.323.209.117.366.257.469.417.1.162.149.359.149.591 0 .377-.149.679-.444.905-.294.226-.68.34-1.155.34-.506 0-.918-.126-1.233-.374-.315-.254-.472-.574-.472-.957h.483c.02.288.141.514.355.671.22.163.509.243.87.243.332 0 .6-.077.806-.229.206-.151.309-.339.309-.571Z"/></g><defs><clipPath id="a"><path fill="#fff" d="M0 0h143v116H0z"/></clipPath></defs></svg>