<svg xmlns="http://www.w3.org/2000/svg" width="140" height="140" fill="none"><path fill="#0065AD" d="M72.338 59.605h-6.932c-10.602 0-19.226-8.624-19.226-19.225 0-6.742-5.484-12.226-12.226-12.226h-6.53a3.5 3.5 0 0 1 0-7h6.53c10.601 0 19.226 8.624 19.226 19.225 0 6.742 5.484 12.226 12.226 12.226h6.932a3.5 3.5 0 0 1 0 7ZM33.954 115.808h-6.53a3.5 3.5 0 0 1 0-7h6.53c6.741 0 12.226-5.484 12.226-12.226 0-10.6 8.624-19.226 19.226-19.226h6.932a3.5 3.5 0 0 1 0 7h-6.932c-6.742 0-12.226 5.485-12.226 12.226 0 10.601-8.625 19.226-19.226 19.226ZM72.338 71.922H27.424a3.5 3.5 0 0 1 0-7h44.914a3.5 3.5 0 0 1 0 7ZM132.396 66.006l-10.635-10.635a3.5 3.5 0 1 0-4.95 4.95l4.661 4.66H86.391a3.5 3.5 0 1 0 0 7h35.081l-4.661 4.66a3.502 3.502 0 0 0 2.475 5.975c.896 0 1.792-.341 2.475-1.025l10.635-10.634a3.5 3.5 0 0 0 0-4.95Z"/><path fill="#5492ED" d="M18.275 37.144c-6.826 0-12.38-5.554-12.38-12.38 0-6.827 5.554-12.38 12.38-12.38 6.827 0 12.38 5.553 12.38 12.38 0 6.826-5.553 12.38-12.38 12.38Zm0-17.76a5.386 5.386 0 0 0-5.38 5.38 5.386 5.386 0 0 0 5.38 5.38 5.386 5.386 0 0 0 5.38-5.38 5.386 5.386 0 0 0-5.38-5.38ZM18.275 80.802c-6.826 0-12.38-5.554-12.38-12.38 0-6.827 5.554-12.38 12.38-12.38 6.827 0 12.38 5.553 12.38 12.38 0 6.826-5.553 12.38-12.38 12.38Zm0-17.76a5.386 5.386 0 0 0-5.38 5.38 5.386 5.386 0 0 0 5.38 5.38 5.386 5.386 0 0 0 5.38-5.38 5.386 5.386 0 0 0-5.38-5.38ZM18.275 124.729c-6.826 0-12.38-5.554-12.38-12.381 0-6.826 5.554-12.38 12.38-12.38 6.827 0 12.38 5.554 12.38 12.38 0 6.827-5.553 12.381-12.38 12.381Zm0-17.761a5.386 5.386 0 0 0-5.38 5.38 5.387 5.387 0 0 0 5.38 5.381 5.387 5.387 0 0 0 5.38-5.381 5.387 5.387 0 0 0-5.38-5.38Z"/><path fill="#44C7F4" d="M85.27 94.117H73.967a3.5 3.5 0 0 1-3.5-3.5V46.345a3.5 3.5 0 0 1 3.5-3.5h11.301a3.5 3.5 0 0 1 3.5 3.5v44.272a3.5 3.5 0 0 1-3.5 3.5Zm-7.802-7h4.301V49.845h-4.301v37.272Z"/></svg>