<?xml version="1.0" encoding="UTF-8"?> <svg xmlns="http://www.w3.org/2000/svg" width="231" height="236" viewBox="0 0 231 236" fill="none"><g clip-path="url(#clip0)"><path d="M5.25684 201.879H212.622" stroke="#202124" stroke-miterlimit="10"></path><path d="M46.6511 197.475H12.0166V201.835H46.6511V197.475Z" fill="white" stroke="#202124" stroke-width="0.75" stroke-miterlimit="10"></path><path d="M42.4543 194.761H8.48242V197.475H42.4543V194.761Z" fill="white" stroke="#202124" stroke-width="0.75" stroke-miterlimit="10"></path><path d="M44.6634 191.914H10.2939V194.672H44.6634V191.914Z" fill="#5492ED"></path><path d="M46.6514 190.713H10.2939V191.914H46.6514V190.713Z" fill="white" stroke="#202124" stroke-width="0.75" stroke-miterlimit="10"></path><path d="M154.618 195.918C154.927 195.517 162.747 191.603 162.747 191.603L172.068 195.517L166.369 200.277L154.618 195.918Z" fill="white" stroke="#202124" stroke-width="0.75" stroke-miterlimit="10"></path><path d="M167.739 196.896H160.891L158.55 183.195H169.859L167.739 196.896Z" fill="#202124"></path><path d="M164.204 185.241C167.327 185.241 169.859 184.345 169.859 183.239C169.859 182.134 167.327 181.237 164.204 181.237C161.081 181.237 158.55 182.134 158.55 183.239C158.55 184.345 161.081 185.241 164.204 185.241Z" fill="white" stroke="#202124" stroke-width="0.75" stroke-miterlimit="10"></path><path d="M168.799 182.305C168.225 182.75 166.811 183.684 164.735 183.818C162.04 183.995 160.14 182.661 159.61 182.305C159.61 181.682 159.655 181.015 159.655 180.392C160.847 180.125 162.393 179.903 164.205 179.947C165.972 179.992 167.518 180.259 168.667 180.526C168.711 181.148 168.755 181.727 168.799 182.305Z" fill="white" stroke="#202124" stroke-width="0.75" stroke-miterlimit="10"></path><path d="M164.205 182.839C166.742 182.839 168.799 181.883 168.799 180.703C168.799 179.524 166.742 178.568 164.205 178.568C161.667 178.568 159.61 179.524 159.61 180.703C159.61 181.883 161.667 182.839 164.205 182.839Z" fill="white" stroke="#202124" stroke-width="0.75" stroke-miterlimit="10"></path><path d="M162.394 0.177246H0.176758V148.406H162.394V0.177246Z" fill="white" stroke="#202124" stroke-width="0.75" stroke-miterlimit="10"></path><path d="M230.823 97.647H137.036V155.212H230.823V97.647Z" fill="white" stroke="#202124" stroke-width="0.75" stroke-miterlimit="10"></path><path d="M231 97.514H136.859V107.034H231V97.514Z" fill="#B1CEFC"></path><path d="M141.808 132.213C145.033 125.896 148.213 119.624 151.438 113.307C155.326 124.206 159.213 135.06 163.101 145.96C166.767 140.265 170.434 134.571 174.101 128.877C177.414 131.813 180.727 134.705 184.085 137.641C185.896 134.171 187.663 130.701 189.474 127.275C191.904 127.587 194.378 127.898 196.808 128.21C199.635 131.101 202.462 133.993 205.29 136.84C211.607 129.322 217.88 121.848 224.197 114.33" stroke="#202124" stroke-miterlimit="10"></path><path d="M219.116 116.376L224.152 114.33" stroke="#202124" stroke-miterlimit="10"></path><path d="M224.152 120.291V114.33" stroke="#202124" stroke-miterlimit="10"></path><path d="M68.4736 18.6843L74.3933 37.4575C74.3491 37.4575 74.305 37.4575 74.2608 37.502C70.0198 38.8811 67.6785 43.4187 69.0038 47.7339C70.3732 52.0046 74.8793 54.3623 79.1644 53.0277C79.2086 53.0277 79.2528 52.9833 79.2969 52.9833L85.2166 71.7565L104.875 65.4394C106.333 69.5767 110.751 71.801 114.948 70.4664C119.1 69.1318 121.442 64.7276 120.249 60.5014L137.875 54.8517L121.132 1.82397L68.4736 18.6843Z" fill="#5492ED"></path><path d="M57.4737 46.7107C57.4737 42.2176 61.0962 38.5697 65.558 38.5697V18.9067H10.293V74.5591H30.305C30.305 74.5147 30.305 74.4702 30.305 74.3812C30.305 69.8881 33.9275 66.2402 38.3894 66.2402C42.8512 66.2402 46.4737 69.8881 46.4737 74.3812C46.4737 74.4257 46.4737 74.4702 46.4737 74.5591H65.558V54.8517C61.0962 54.8517 57.4737 51.2038 57.4737 46.7107Z" fill="white" stroke="#202124" stroke-miterlimit="10"></path><path d="M57.4737 105.166C57.4737 100.673 61.0962 97.0247 65.558 97.0247V74.4256H46.4737C46.4737 74.3811 46.4737 74.2922 46.4737 74.2477C46.4737 69.7546 42.8512 66.1067 38.3894 66.1067C33.9275 66.1067 30.305 69.7546 30.305 74.2477C30.305 74.2922 30.305 74.3811 30.305 74.4256H10.293V130.078H65.558V113.307C61.0962 113.307 57.4737 109.659 57.4737 105.166Z" fill="white" stroke="#202124" stroke-miterlimit="10"></path><path d="M102.446 74.5146C102.313 78.9188 98.7791 82.4332 94.3614 82.4332C89.9438 82.4332 86.4096 78.9188 86.2771 74.5146H65.6466V97.0692C65.6024 97.0692 65.5582 97.0692 65.514 97.0692C61.0522 97.0692 57.4297 100.717 57.4297 105.21C57.4297 109.703 61.0522 113.351 65.514 113.351C65.5582 113.351 65.6024 113.351 65.6466 113.351V130.212H120.912V74.5146H102.446Z" fill="white" stroke="#202124" stroke-miterlimit="10"></path><path d="M131.337 180.214C131.028 179.769 131.028 178.969 131.072 177.412C131.072 176.7 131.116 175.766 131.293 174.431C131.337 173.897 131.558 172.251 132.132 170.472C132.309 169.982 132.53 169.404 133.104 169.004C133.501 168.737 133.899 168.692 134.164 168.692C134.076 170.338 134.208 170.739 134.341 170.783C134.694 170.872 135.534 168.514 135.71 167.98C136.329 166.156 136.594 164.688 136.947 164.733C137.036 164.733 137.036 164.777 137.433 165.356C137.875 165.934 137.875 165.934 137.963 166.068C138.096 166.334 138.317 166.779 138.228 167.58C138.361 167.847 138.582 168.292 138.714 168.826C138.803 169.093 139.068 170.071 138.847 171.806C138.714 172.963 138.493 173.808 138.14 175.009C137.875 175.81 137.61 176.744 137.08 177.856C136.24 179.68 135.843 180.57 135.003 181.015C133.855 181.46 132.088 181.193 131.337 180.214Z" fill="white"></path><path d="M117.598 163.398C117.951 163.799 118.437 164.377 118.968 165.089C120.646 167.358 121.706 169.493 122.811 172.251C123.827 174.787 125.152 178.257 126.345 182.661C126.743 182.038 127.096 181.504 127.361 181.104C128.245 179.903 128.907 178.969 130.056 178.168C130.63 177.767 131.116 177.5 131.47 177.367C131.911 177.323 132.53 177.367 133.192 177.545C134.65 177.99 135.49 179.013 135.799 179.413C135.755 180.57 135.71 182.216 135.49 184.129C134.915 189.067 133.811 192.804 132.883 195.74C131.911 198.809 132.088 197.564 130.498 202.324C129.791 204.459 128.996 206.817 127.14 208.908C126.345 209.798 125.55 210.42 124.534 210.376C123.871 210.331 123.341 210.02 123.032 209.753C122.369 209.219 121.397 208.418 120.337 207.306C119.807 206.728 118.128 204.904 115.875 200.633C114.903 198.765 113.445 195.829 112.032 191.781C111.016 188.889 110.309 186.086 110.044 184.796C108.498 176.344 115.257 166.557 117.598 163.398Z" fill="white"></path><path d="M117.466 163.532C120.779 167.358 122.723 172.029 124.269 176.833C125.859 181.638 127.273 186.531 128.731 191.38C128.775 191.603 129.128 191.514 129.04 191.291C127.45 185.953 125.903 180.57 124.136 175.321C122.634 170.961 120.735 166.779 117.687 163.309C117.554 163.131 117.333 163.354 117.466 163.532Z" fill="#202124"></path><path d="M110.353 186.709C112.738 194.984 116.14 204.682 123.253 210.02C123.429 210.153 123.606 209.842 123.429 209.753C116.449 204.459 113.048 194.806 110.706 186.62C110.618 186.442 110.309 186.531 110.353 186.709Z" fill="#202124"></path><path d="M126.522 182.75C127.759 180.703 129.349 178.968 131.205 177.5C131.381 177.367 131.116 177.145 130.984 177.278C129.084 178.746 127.494 180.57 126.257 182.616C126.124 182.794 126.389 182.928 126.522 182.75Z" fill="#202124"></path><path d="M131.558 177.545C133.237 177.456 134.783 178.168 135.755 179.502C135.888 179.68 136.153 179.502 136.02 179.324C134.96 177.901 133.325 177.1 131.514 177.189C131.337 177.234 131.337 177.545 131.558 177.545Z" fill="#202124"></path><path d="M123.651 210.42C125.683 210.732 127.052 209.575 128.068 207.929C129.659 205.304 130.807 202.279 131.868 199.432C134.165 193.16 135.578 186.665 136.197 179.992C136.197 179.769 135.888 179.769 135.843 179.992C135.358 185.286 134.386 190.49 132.795 195.562C132 198.098 131.117 200.544 130.056 202.991C128.952 205.571 127.317 210.687 123.695 210.109C123.562 210.064 123.474 210.42 123.651 210.42Z" fill="#202124"></path><path d="M131.116 177.1C131.337 175.454 131.337 169.226 133.722 168.959C133.943 168.915 133.943 168.603 133.722 168.603C130.939 168.915 131.027 175.098 130.807 177.1C130.762 177.322 131.116 177.278 131.116 177.1Z" fill="#202124"></path><path d="M134.208 169.671C134.208 170.027 134.208 170.383 134.208 170.739C134.208 170.961 134.561 170.961 134.561 170.739C134.561 170.383 134.561 170.027 134.561 169.671C134.517 169.448 134.208 169.448 134.208 169.671Z" fill="#202124"></path><path d="M134.65 170.783C135.799 168.959 136.373 166.69 137.124 164.688C137.212 164.466 136.859 164.421 136.815 164.599C136.064 166.557 135.489 168.826 134.385 170.605C134.253 170.783 134.562 170.961 134.65 170.783Z" fill="#202124"></path><path d="M137.168 164.688C137.61 166.512 137.477 168.292 136.859 170.027C136.77 170.249 137.124 170.338 137.168 170.116C137.787 168.336 137.919 166.468 137.477 164.599C137.433 164.377 137.124 164.466 137.168 164.688Z" fill="#202124"></path><path d="M137.698 165.667C138.272 167.491 138.228 169.359 137.61 171.183C137.521 171.406 137.875 171.495 137.919 171.272C138.582 169.404 138.582 167.491 138.007 165.578C137.963 165.356 137.654 165.445 137.698 165.667Z" fill="#202124"></path><path d="M138.494 167.936C138.759 169.537 138.626 171.094 138.096 172.607C138.008 172.829 138.361 172.918 138.405 172.696C138.98 171.094 139.112 169.493 138.803 167.847C138.759 167.624 138.45 167.713 138.494 167.936Z" fill="#202124"></path><path d="M138.715 170.294C138.98 173.63 137.124 176.922 135.932 179.903C135.843 180.081 136.153 180.17 136.241 179.992C137.434 176.967 139.289 173.63 139.068 170.294C139.024 170.071 138.715 170.071 138.715 170.294Z" fill="#202124"></path><path d="M67.5904 160.373C67.1044 161.396 66.4418 162.908 66.0442 164.821C65.6024 167.001 65.6024 168.692 65.6466 169.715C65.8233 176.165 65.9117 179.368 66.4418 182.616C66.6627 184.128 67.5904 189.867 70.3293 198.053C72.0964 203.302 74.8795 210.42 79.3414 218.383C82.2129 219.717 87.5583 221.719 94.4056 221.541C103.859 221.319 110.574 217.182 113.269 215.358C113.578 214.246 113.976 212.733 114.418 210.954C115.345 207.083 116.361 202.279 117.333 194.983C118.747 184.484 119.454 179.279 118.968 172.695C118.659 168.736 118.084 165.489 117.598 163.353C117.112 163.086 116.361 162.686 115.478 162.241C108.851 158.816 103.241 157.481 102.048 157.214C99.1767 156.547 93.6546 155.479 86.6305 155.88C79.0763 156.28 73.3775 158.148 70.9478 159.038C69.5342 159.528 68.3856 160.017 67.5904 160.373Z" fill="white"></path><path d="M67.6347 160.507C83.4058 153.611 101.916 154.679 116.848 163.22C117.024 163.309 117.201 163.042 117.024 162.953C102.004 154.323 83.3616 153.3 67.458 160.24C67.2813 160.329 67.458 160.596 67.6347 160.507Z" fill="#202124"></path><path d="M65.8234 164.866C63.8797 181.682 69.0483 198.142 76.2933 213.09C76.3817 213.268 76.6909 213.134 76.5584 212.912C69.3576 198.009 64.1889 181.593 66.1327 164.866C66.1768 164.644 65.8676 164.644 65.8234 164.866Z" fill="#202124"></path><path d="M117.908 164.733C119.277 172.918 118.968 181.237 117.952 189.467C116.936 197.519 115.699 205.794 113.579 213.579C113.534 213.801 113.844 213.89 113.888 213.668C116.052 205.838 117.245 197.519 118.305 189.467C119.366 181.237 119.675 172.874 118.261 164.644C118.217 164.422 117.864 164.511 117.908 164.733Z" fill="#202124"></path><path d="M99.8833 153.389C104.47 153.389 108.189 149.645 108.189 145.026C108.189 140.407 104.47 136.662 99.8833 136.662C95.2965 136.662 91.5781 140.407 91.5781 145.026C91.5781 149.645 95.2965 153.389 99.8833 153.389Z" fill="#202124"></path><path d="M99.2207 138.219C99.795 138.397 100.811 138.842 101.65 139.776C103.285 141.556 103.197 143.78 103.152 144.492C103.064 146.36 102.313 147.695 101.871 148.362C101.032 144.981 100.104 141.6 99.2207 138.219Z" fill="#202124"></path><path d="M99.8836 138.442C98.9117 137.151 96.9238 134.66 94.3615 134.749C91.4017 134.838 88.7511 138.308 88.0884 141.467C87.6025 143.78 88.5302 144.269 87.9559 145.915C86.6748 149.519 81.727 148.584 79.1647 152.01C76.3816 155.702 78.4137 161.886 80.1808 165.044C80.7993 166.201 84.2451 172.34 89.8555 172.385C94.8916 172.429 98.2491 167.625 99.7953 165.4C105.538 157.17 105.141 145.248 99.8836 138.442Z" fill="#202124"></path><path d="M116.98 236H66.6186C63.7029 236 61.3174 233.598 61.3174 230.662V167.091C61.3174 164.155 63.7029 161.752 66.6186 161.752H116.98C119.896 161.752 122.281 164.155 122.281 167.091V230.662C122.281 233.598 119.896 236 116.98 236Z" fill="#5492ED"></path></g><defs><clipPath id="clip0"><rect width="231" height="236" fill="white"></rect></clipPath></defs></svg> 